<svg width="358" height="339" viewBox="0 0 358 339" fill="none" xmlns="http://www.w3.org/2000/svg">
<path d="M100.026 285.102C97.9026 285.77 92.9551 285.102 92.9551 285.102C92.9551 285.102 94.379 281.973 94.4916 281.788C95.827 279.632 99.6804 276.253 102.44 276.961C102.894 277.088 103.316 277.309 103.68 277.61C104.043 277.91 104.339 278.284 104.548 278.707C104.758 279.129 104.876 279.591 104.895 280.062C104.914 280.534 104.834 281.004 104.66 281.442C103.976 283.324 101.836 284.539 100.026 285.102Z" fill="#263238"/>
<path d="M53.9463 283.718C53.898 283.718 53.4073 280.331 53.3992 280.106C53.3268 277.571 54.6784 272.632 57.3572 271.683C57.8062 271.537 58.2808 271.488 58.75 271.539C59.2192 271.589 59.6725 271.738 60.0802 271.976C60.4879 272.214 60.8409 272.535 61.1161 272.918C61.3913 273.301 61.5825 273.738 61.6772 274.201C62.1519 276.148 61.0337 278.344 59.843 279.832C58.4352 281.538 53.9463 283.718 53.9463 283.718Z" fill="#263238"/>
<path d="M54.8068 320.233C56.464 320.442 59.7462 319.509 60.6633 319.235C60.8162 320.651 60.9932 322.043 61.2426 323.41C61.3552 323.998 61.4356 324.609 61.5804 325.164C61.7252 325.719 61.854 326.29 61.9827 326.845C62.2964 327.98 62.578 329.034 62.8998 330.063C63.0526 330.602 63.2135 331.093 63.3744 331.608C62.9802 330.803 62.3366 329.516 62.2642 329.404C61.0414 327.537 57.5903 324.649 55.1849 325.309C54.7885 325.429 54.4218 325.63 54.1085 325.901C53.7952 326.172 53.5423 326.505 53.3663 326.88C53.1903 327.255 53.0951 327.663 53.0869 328.077C53.0786 328.49 53.1576 328.902 53.3185 329.283C53.9541 330.892 55.8687 331.954 57.4696 332.412C59.2314 332.919 63.1009 332.364 63.5836 332.292C63.9858 333.547 64.388 334.77 64.7742 335.904C65.0316 336.652 65.281 337.352 65.5223 338.036H67.1313C66.8095 337.231 66.4797 336.338 66.1337 335.405C65.7878 334.472 65.3775 333.305 64.9914 332.187C65.4258 332.002 68.7885 330.578 70.14 329.267C71.2105 329.931 72.32 330.53 73.4624 331.061C73.0924 332.332 72.7545 333.571 72.4569 334.729C72.1592 335.888 71.8857 336.99 71.6524 338.036H73.2613C73.4624 337.094 73.6797 336.129 73.921 335.083C74.1623 334.037 74.4519 332.911 74.7255 331.769C75.2001 331.857 79.0535 332.573 80.8314 332.139C82.4403 331.745 84.4032 330.787 85.0951 329.17C85.2674 328.797 85.36 328.392 85.3669 327.982C85.3738 327.571 85.2948 327.163 85.135 326.784C84.9752 326.406 84.7382 326.065 84.439 325.783C84.1399 325.501 83.7852 325.285 83.3976 325.148C80.9842 324.4 77.4526 327.143 76.1574 328.961C76.077 329.082 75.2564 330.57 74.8542 331.326C75.0312 330.635 75.2162 329.951 75.4173 329.235C75.6989 328.205 76.0287 327.119 76.3505 326.073L76.9056 324.464C77.0826 323.901 77.3239 323.394 77.5331 322.855C77.8549 322.051 78.2249 321.246 78.595 320.442C79.6247 320.788 82.6736 321.769 84.2826 321.633C85.8915 321.496 88.0153 320.828 88.9485 319.348C89.181 319.004 89.3386 318.615 89.411 318.206C89.4835 317.798 89.4692 317.378 89.369 316.975C89.2689 316.573 89.0852 316.195 88.8298 315.868C88.5744 315.541 88.253 315.271 87.8866 315.076C85.6421 313.974 81.7083 316.154 80.1556 317.755C80.0993 317.803 79.8097 318.173 79.4638 318.624C79.8499 317.819 80.2683 317.079 80.6464 316.315C81.8209 314.143 83.0598 311.971 84.3469 309.783L85.1514 308.415C86.0202 308.713 89.3185 309.799 90.9999 309.654C92.6812 309.509 94.7326 308.85 95.6658 307.369C95.8982 307.026 96.0557 306.638 96.128 306.23C96.2004 305.822 96.1861 305.403 96.0859 305.001C95.9857 304.598 95.802 304.222 95.5467 303.895C95.2913 303.569 94.9701 303.3 94.6039 303.106C92.3594 302.003 88.4256 304.176 86.873 305.776C86.8166 305.833 86.4627 306.283 86.0685 306.782C86.7362 305.583 87.3878 304.369 87.9992 303.17C89.0552 301.088 89.9716 298.938 90.7424 296.734C91.0481 296.847 94.8855 298.206 96.7518 298.037C98.4171 297.893 100.485 297.233 101.426 295.753C101.658 295.409 101.815 295.02 101.887 294.612C101.959 294.203 101.943 293.784 101.843 293.382C101.742 292.98 101.557 292.603 101.301 292.277C101.045 291.951 100.723 291.682 100.356 291.489C98.1194 290.387 94.1775 292.559 92.6249 294.16C92.5123 294.273 91.2654 295.89 90.839 296.485V296.412C91.5477 294.235 92.0566 291.997 92.3594 289.727C92.6471 287.706 92.8136 285.67 92.8582 283.629C92.9226 281.731 92.8582 280.001 92.8019 278.465C92.7617 277.66 92.7054 276.856 92.649 276.164H92.6893C92.6893 276.164 93.7351 273.324 93.7753 273.139C94.266 270.967 93.9362 266.478 91.7883 265.199C91.4256 264.998 91.0248 264.876 90.6118 264.841C90.1989 264.805 89.7831 264.857 89.3916 264.993C89 265.129 88.6414 265.346 88.3392 265.629C88.0369 265.913 87.7977 266.257 87.6372 266.639C86.8971 268.248 87.4844 270.323 88.2727 271.796C89.0611 273.268 91.8365 275.496 92.5284 276.035C92.5766 276.775 92.6169 277.564 92.641 278.449C92.641 279.985 92.6893 281.715 92.5847 283.605C92.5847 284.104 92.5123 284.643 92.4721 285.166C92.3514 284.273 92.1744 283.042 92.1422 282.93C91.5791 280.774 89.214 276.936 86.7282 276.799C86.3103 276.786 85.8945 276.862 85.5082 277.022C85.1218 277.181 84.7738 277.421 84.4871 277.725C84.2004 278.03 83.9815 278.391 83.845 278.786C83.7085 279.181 83.6575 279.601 83.6953 280.017C83.7757 281.779 85.264 283.364 86.6397 284.305C88.0153 285.246 91.6274 285.97 92.4077 286.107C92.3031 287.266 92.1664 288.456 91.9572 289.687C91.6195 291.924 91.081 294.127 90.3483 296.268H90.2115C90.2115 295.463 90.1391 293.669 90.123 293.524C89.7932 291.312 87.8705 287.241 85.4088 286.831C84.9981 286.775 84.58 286.805 84.1818 286.921C83.7836 287.036 83.4143 287.235 83.0978 287.502C82.7813 287.77 82.5248 288.102 82.345 288.476C82.1652 288.849 82.0661 289.257 82.0542 289.671C81.9335 291.433 83.2448 293.162 84.4676 294.256C85.9237 295.503 89.9862 296.67 90.1391 296.726C89.3426 298.831 88.4101 300.881 87.3476 302.864C86.5431 304.336 85.7387 305.801 84.8537 307.257C84.8537 306.669 84.7813 304.353 84.7572 304.184C84.4354 301.979 82.5127 297.909 80.0511 297.498C79.6455 297.45 79.2344 297.487 78.8437 297.605C78.4529 297.724 78.0908 297.922 77.7803 298.187C77.4697 298.452 77.2174 298.779 77.0392 299.146C76.861 299.514 76.7607 299.914 76.7447 300.322C76.6321 302.076 77.9353 303.814 79.1983 304.9C80.6142 306.122 84.5078 307.265 84.8296 307.361C84.4354 308.021 84.0251 308.689 83.639 309.348C82.3358 311.504 81.0164 313.652 79.7856 315.824C79.3592 316.572 78.9811 317.329 78.5628 318.085C78.5628 317.2 78.4984 315.591 78.4743 315.454C78.1525 313.25 76.2298 309.179 73.7682 308.761C73.357 308.704 72.9385 308.735 72.5399 308.85C72.1413 308.966 71.7714 309.164 71.4544 309.432C71.1373 309.7 70.88 310.031 70.6993 310.405C70.5186 310.779 70.4185 311.186 70.4055 311.601C70.2928 313.363 71.5961 315.092 72.8189 316.186C74.0417 317.28 77.3319 318.302 78.249 318.6C77.5974 319.863 76.978 321.126 76.4309 322.397C76.1976 322.952 75.9322 323.507 75.7471 324.054C75.5621 324.601 75.3529 325.14 75.1518 325.663C74.7898 326.781 74.4439 327.819 74.1302 328.881C73.9693 329.412 73.8325 329.911 73.6797 330.433C73.8003 329.532 73.9693 328.109 73.9693 327.98C73.9693 325.743 72.6982 321.431 70.325 320.651C69.9278 320.532 69.5101 320.499 69.0991 320.552C68.688 320.605 68.2928 320.745 67.9391 320.961C67.5855 321.177 67.2814 321.466 67.0465 321.807C66.8117 322.149 66.6514 322.536 66.5762 322.944C66.5296 323.158 66.5027 323.376 66.4957 323.595C65.4207 325.237 64.7812 327.125 64.6374 329.082C64.6374 329.219 64.7661 330.916 64.8546 331.777C64.6213 331.101 64.3961 330.425 64.1708 329.717C63.8329 328.704 63.5192 327.618 63.2055 326.564L62.771 324.899C62.6102 324.336 62.5217 323.772 62.401 323.209C62.2321 322.405 62.0953 321.496 61.9666 320.627C63.0204 320.353 66.1096 319.485 67.3726 318.487C68.6356 317.49 70.0435 315.768 70.0032 314.006C70.0072 313.594 69.9246 313.185 69.7609 312.806C69.5972 312.428 69.356 312.088 69.0528 311.808C68.7497 311.528 68.3913 311.315 68.0007 311.183C67.6102 311.05 67.1962 311.001 66.7854 311.038C64.3076 311.343 62.224 315.334 61.8057 317.53C61.8057 317.602 61.7574 318.069 61.7172 318.632C61.6126 317.779 61.508 316.926 61.4276 316.058C61.2104 313.596 61.0656 311.086 60.9127 308.568C60.9127 308.045 60.8403 307.514 60.8081 306.959C61.6931 306.734 65.0477 305.825 66.367 304.771C67.6864 303.717 69.0459 302.052 69.0057 300.29C69.0084 299.878 68.925 299.47 68.7609 299.092C68.5968 298.714 68.3555 298.374 68.0526 298.095C67.7497 297.815 67.3918 297.602 67.0018 297.469C66.6118 297.336 66.1983 297.286 65.7878 297.321C63.31 297.635 61.2265 301.625 60.8081 303.814C60.8081 303.894 60.7518 304.457 60.7036 305.093C60.599 303.725 60.4783 302.357 60.3174 301.014C60.0447 298.701 59.6201 296.409 59.0464 294.152C59.3601 294.071 63.31 293.082 64.7742 291.915C66.0774 290.878 67.4531 289.196 67.4128 287.435C67.4155 287.022 67.3321 286.614 67.168 286.236C67.0039 285.858 66.7627 285.519 66.4598 285.239C66.1569 284.96 65.799 284.747 65.409 284.614C65.019 284.48 64.6055 284.43 64.195 284.466C61.7172 284.78 59.6336 288.77 59.2153 290.958C59.2153 291.119 59.0383 293.154 59.0061 293.886C59.0099 293.86 59.0099 293.833 59.0061 293.806C58.3983 291.592 57.5905 289.438 56.5927 287.37C55.7124 285.526 54.7266 283.735 53.6403 282.004C52.6428 280.395 51.6372 278.972 50.7362 277.725C50.2455 277.049 49.7869 276.445 49.3445 275.89H49.3927C49.3927 275.89 48.6928 272.954 48.5883 272.777C47.7838 270.694 45.0486 267.146 42.5547 267.25C42.1411 267.283 41.7388 267.402 41.3741 267.6C41.0095 267.798 40.6905 268.07 40.4379 268.4C40.1853 268.729 40.0047 269.107 39.9079 269.511C39.8111 269.914 39.8001 270.334 39.8758 270.742C40.1413 272.479 41.7905 273.895 43.2546 274.692C44.7188 275.488 48.2745 275.81 49.1433 275.874C49.5938 276.47 50.0604 277.105 50.5592 277.821C51.428 279.084 52.4014 280.516 53.3588 282.141C53.6081 282.576 53.8656 283.058 54.123 283.517C53.5277 282.833 52.7071 281.908 52.6106 281.827C50.9534 280.339 46.8667 278.441 44.7188 279.704C44.3646 279.92 44.0599 280.209 43.8245 280.551C43.5891 280.893 43.4282 281.28 43.3523 281.688C43.2765 282.097 43.2873 282.516 43.3841 282.92C43.4809 283.323 43.6616 283.702 43.9143 284.032C44.9521 285.456 47.0678 285.954 48.7411 285.986C50.4144 286.019 53.8173 284.619 54.5494 284.313C55.1045 285.335 55.6435 286.397 56.1583 287.531C57.1 289.605 57.8538 291.759 58.4108 293.967L58.2821 294.023C57.8075 293.331 56.7858 291.891 56.6732 291.787C55.1849 290.121 51.3395 287.764 49.0548 288.802C48.6813 288.982 48.3499 289.239 48.0819 289.556C47.814 289.872 47.6156 290.242 47.4995 290.64C47.3835 291.038 47.3524 291.456 47.4083 291.867C47.4642 292.278 47.6058 292.673 47.824 293.026C48.6928 294.554 50.7442 295.286 52.3934 295.495C54.3 295.737 58.3304 294.474 58.4832 294.425C58.994 296.633 59.3595 298.871 59.5773 301.127C59.7382 302.792 59.8347 304.473 59.9152 306.171C59.6014 305.672 58.258 303.757 58.1453 303.661C56.6571 301.995 52.8117 299.638 50.527 300.676C50.1535 300.856 49.822 301.113 49.5541 301.43C49.2862 301.746 49.0877 302.116 48.9717 302.514C48.8556 302.912 48.8246 303.33 48.8805 303.741C48.9364 304.152 49.078 304.547 49.2962 304.9C50.165 306.428 52.2164 307.16 53.8656 307.369C55.7239 307.611 59.6014 306.412 59.9232 306.307C59.9232 307.112 60.0037 307.844 60.0278 308.616C60.1324 311.134 60.2209 313.66 60.3818 316.146C60.4381 317.015 60.5266 317.86 60.6151 318.712C60.1163 317.98 59.1831 316.669 59.0866 316.564C57.5983 314.899 53.7529 312.542 51.4683 313.588C51.0941 313.766 50.7618 314.022 50.4932 314.338C50.2246 314.653 50.0257 315.022 49.9095 315.42C49.7933 315.818 49.7625 316.236 49.819 316.647C49.8755 317.057 50.0181 317.452 50.2374 317.803C51.1062 319.292 53.1576 320.024 54.8068 320.233Z" fill="#263238"/>
<path d="M220.472 81.3302C218.326 80.2039 216.321 78.166 214.454 75.2162C212.515 72.0793 211.534 68.4447 211.63 64.7581C211.63 60.8752 212.666 57.9604 214.736 56.0135C216.806 54.0667 219.847 52.5919 223.858 51.589L238.524 48.0413C244.799 46.4323 247.934 43.4236 247.928 39.0151C247.928 36.6339 246.77 34.5637 244.453 32.8046C242.136 31.0455 238.154 30.1686 232.506 30.174C227.611 30.1416 222.735 30.8053 218.026 32.1449C214.194 33.1697 210.523 34.721 207.117 36.7546C204.968 35.1107 203.122 33.1043 201.663 30.8256C200.105 28.316 199.319 25.4038 199.403 22.4511C199.363 19.3726 200.364 16.3709 202.242 13.9318C204.324 11.3304 207.001 9.26681 210.046 7.91432C213.816 6.21313 217.804 5.04094 221.895 4.43097C226.904 3.64848 231.967 3.27184 237.036 3.30471C251.822 3.28326 263.017 6.55745 270.622 13.1273C278.227 19.6971 282.019 28.3183 281.997 38.991C281.997 59.0544 267.828 71.9072 239.489 77.5492L220.472 81.3302ZM214.261 105.971C214.261 100.833 215.87 96.6017 219.088 93.2766C222.306 89.9514 226.728 88.2888 232.354 88.2888C237.99 88.2888 242.409 89.9514 245.611 93.2766C248.813 96.6017 250.422 100.833 250.438 105.971C250.438 111.12 248.829 115.351 245.611 118.666C242.393 121.98 237.974 123.643 232.354 123.653C226.706 123.653 222.284 121.991 219.088 118.666C215.891 115.34 214.283 111.109 214.261 105.971Z" fill="#263238"/>
<path d="M232.321 124.055C226.594 124.055 222.032 122.333 218.766 118.946C215.5 115.56 213.859 111.199 213.859 105.97C213.859 100.741 215.508 96.381 218.766 92.9942C222.024 89.6074 226.594 87.8858 232.321 87.8858C238.049 87.8858 242.611 89.6074 245.869 92.9942C249.127 96.381 250.776 100.749 250.776 105.97C250.776 111.191 249.127 115.568 245.869 118.946C242.611 122.325 238.049 124.055 232.321 124.055ZM232.321 88.6581C226.819 88.6581 222.451 90.2671 219.345 93.4849C216.24 96.7028 214.663 100.894 214.663 105.898C214.663 110.902 216.272 115.085 219.345 118.319C222.418 121.553 226.819 123.146 232.321 123.146C237.824 123.146 242.184 121.537 245.29 118.319C248.395 115.101 249.972 110.91 249.972 105.898C249.972 100.886 248.403 96.7913 245.29 93.5734C242.176 90.3556 237.824 88.6903 232.321 88.6903V88.6581ZM220.472 81.6995C220.404 81.6988 220.338 81.6823 220.279 81.6512C218.098 80.5008 216.023 78.4333 214.108 75.4005C212.143 72.2014 211.143 68.5029 211.228 64.7493C211.228 60.7672 212.314 57.7263 214.446 55.7071C216.578 53.6879 219.691 52.2076 223.754 51.194L238.443 47.6463C244.557 46.0373 247.534 43.2297 247.534 39.0143C247.534 36.7779 246.424 34.7909 244.22 33.1256C242.015 31.4604 238.041 30.5754 232.515 30.5754C227.657 30.546 222.82 31.2042 218.147 32.5303C214.354 33.5491 210.718 35.0839 207.343 37.0916C207.273 37.137 207.192 37.1611 207.109 37.1611C207.027 37.1611 206.945 37.137 206.876 37.0916C204.696 35.4169 202.821 33.3785 201.333 31.0662C199.737 28.4851 198.934 25.4919 199.024 22.4583C198.973 19.2813 199.997 16.1801 201.929 13.6575C204.043 10.9994 206.762 8.88633 209.861 7.49522C213.665 5.77965 217.688 4.59668 221.815 3.97969C226.845 3.19481 231.929 2.81549 237.02 2.84539C251.846 2.84539 263.229 6.20002 270.864 12.8208C278.498 19.4416 282.376 28.2586 282.376 38.9902C282.376 59.1743 267.967 72.2791 239.546 77.9426L220.544 81.6995H220.472ZM232.539 29.7388C238.242 29.7388 242.345 30.6478 244.726 32.4499C247.108 34.2519 248.363 36.4722 248.363 38.9822C248.363 43.5515 245.104 46.7211 238.661 48.3944L223.963 52.0065C220.037 52.988 217.02 54.4199 215.017 56.3265C213.014 58.2331 212.041 61.0246 212.041 64.7815C211.954 68.3847 212.912 71.9361 214.8 75.0063C216.594 77.8219 218.525 79.8331 220.544 80.9111L239.401 77.1784C267.388 71.6034 281.579 58.7641 281.579 39.0143C281.579 28.5562 277.798 19.9243 270.317 13.4483C262.835 6.97232 251.629 3.67399 237.003 3.67399C231.956 3.64136 226.914 4.01801 221.928 4.80025C217.873 5.40414 213.921 6.5627 210.182 8.24338C207.198 9.57294 204.574 11.5976 202.532 14.1482C200.719 16.534 199.767 19.4627 199.829 22.4583C199.748 25.3312 200.511 28.1647 202.025 30.6076C203.412 32.7588 205.15 34.6622 207.166 36.2389C210.541 34.2672 214.163 32.7523 217.938 31.7339C222.677 30.3953 227.582 29.7345 232.506 29.771L232.539 29.7388Z" fill="#263238"/>
<path d="M154.047 209.354L155.64 338.181H218.654L213.473 210.946L154.047 209.354Z" fill="#263238"/>
<path d="M218.652 338.584H155.638C155.531 338.584 155.429 338.542 155.354 338.466C155.278 338.391 155.236 338.288 155.236 338.182L153.627 209.354C153.63 209.246 153.673 209.143 153.748 209.064C153.787 209.026 153.833 208.996 153.885 208.977C153.936 208.957 153.991 208.949 154.045 208.952L213.471 210.561C213.573 210.565 213.67 210.606 213.743 210.678C213.816 210.749 213.86 210.845 213.866 210.947L219.054 338.133C219.058 338.187 219.049 338.241 219.03 338.291C219.011 338.341 218.98 338.386 218.942 338.423C218.909 338.47 218.865 338.508 218.815 338.536C218.765 338.564 218.709 338.58 218.652 338.584ZM156.032 337.779H218.234L213.085 211.341L154.448 209.732L156.032 337.779Z" fill="#263238"/>
<path d="M154.047 163.33L155.64 292.158H218.654L213.473 164.923L154.047 163.33Z" fill="white"/>
<path d="M218.652 292.561H155.638C155.531 292.561 155.429 292.518 155.354 292.443C155.278 292.367 155.236 292.265 155.236 292.158L153.627 163.339C153.627 163.23 153.671 163.126 153.748 163.049C153.785 163.008 153.831 162.976 153.883 162.955C153.934 162.934 153.99 162.925 154.045 162.928L213.471 164.537C213.573 164.537 213.671 164.577 213.745 164.647C213.818 164.718 213.861 164.814 213.866 164.916L219.046 292.15C219.05 292.205 219.042 292.26 219.022 292.311C219.003 292.363 218.973 292.409 218.934 292.448C218.858 292.52 218.757 292.56 218.652 292.561ZM156.032 291.756H218.234L213.085 165.318L154.448 163.709L156.032 291.756Z" fill="#263238"/>
<path d="M175.968 177.224L182.533 188.165L171.053 270.736L188.365 288.056L199.668 266.367L186.724 188.712L193.288 179.782L186 168.109L175.968 177.224Z" fill="#263238"/>
<path d="M188.365 288.457C188.312 288.458 188.26 288.447 188.211 288.426C188.163 288.406 188.119 288.375 188.083 288.336L170.763 271.024C170.719 270.979 170.687 270.924 170.667 270.864C170.648 270.804 170.642 270.741 170.65 270.678L182.13 188.244L175.646 177.432C175.596 177.353 175.576 177.258 175.589 177.165C175.602 177.072 175.648 176.987 175.718 176.925L185.742 167.811C185.788 167.773 185.84 167.745 185.897 167.728C185.954 167.712 186.013 167.707 186.072 167.714C186.13 167.722 186.185 167.743 186.234 167.775C186.282 167.807 186.323 167.849 186.354 167.899L193.642 179.564C193.687 179.631 193.711 179.709 193.711 179.789C193.711 179.87 193.687 179.948 193.642 180.014L187.206 188.807L200.118 266.294C200.133 266.382 200.119 266.472 200.078 266.551L188.815 288.272C188.786 288.328 188.743 288.376 188.691 288.412C188.64 288.448 188.58 288.472 188.518 288.481L188.365 288.457ZM171.471 270.598L188.252 287.379L199.241 266.294L186.321 188.775C186.305 188.668 186.331 188.558 186.394 188.469L192.83 179.757L185.935 168.736L176.499 177.303L182.935 187.955C182.981 188.035 183 188.128 182.991 188.22L171.471 270.598Z" fill="#263238"/>
<path d="M182.532 188.164L182.282 189.974L189.603 184.794L193.288 179.782L189.772 174.15L178.791 181.922L182.532 188.164Z" fill="#08AF54"/>
<path d="M182.284 190.376C182.209 190.374 182.137 190.352 182.075 190.311C182.008 190.272 181.954 190.213 181.92 190.143C181.885 190.073 181.872 189.995 181.882 189.917L182.115 188.244L178.446 182.13C178.391 182.043 178.372 181.938 178.393 181.838C178.414 181.737 178.474 181.648 178.559 181.591L189.54 173.828C189.631 173.764 189.744 173.738 189.854 173.755C189.907 173.767 189.957 173.79 190.002 173.822C190.046 173.853 190.083 173.894 190.111 173.94L193.627 179.572C193.672 179.638 193.696 179.717 193.696 179.797C193.696 179.877 193.672 179.956 193.627 180.022L189.95 185.034C189.922 185.068 189.89 185.098 189.854 185.123L182.533 190.303C182.46 190.353 182.372 190.378 182.284 190.376ZM179.323 182.066L182.879 187.987C182.925 188.067 182.945 188.16 182.935 188.252L182.807 189.137L189.323 184.535L192.806 179.789L189.661 174.761L179.323 182.066Z" fill="#263238"/>
<path d="M178.734 215.491L189.876 207.608L188.308 198.195L180.351 203.819L178.734 215.491Z" fill="#08AF54"/>
<path d="M178.735 215.853C178.661 215.855 178.589 215.835 178.526 215.797C178.459 215.756 178.406 215.698 178.372 215.628C178.338 215.558 178.324 215.48 178.333 215.403L179.941 203.73C179.949 203.675 179.968 203.623 179.997 203.575C180.026 203.528 180.065 203.488 180.11 203.456L188.059 197.825C188.114 197.786 188.179 197.761 188.246 197.754C188.314 197.747 188.382 197.758 188.445 197.785C188.507 197.812 188.562 197.854 188.604 197.907C188.646 197.961 188.674 198.024 188.686 198.091L190.255 207.503C190.267 207.577 190.258 207.653 190.229 207.722C190.201 207.792 190.154 207.852 190.094 207.897L178.968 215.853C178.892 215.875 178.811 215.875 178.735 215.853ZM180.73 204.019L179.258 214.59L189.434 207.35L188.018 198.823L180.73 204.019Z" fill="#263238"/>
<path d="M188.686 287.436L197.366 270.775L181.977 281.668L188.139 287.83L188.686 287.436Z" fill="#08AF54"/>
<path d="M188.14 288.256C188.032 288.256 187.927 288.212 187.851 288.135L181.697 281.973C181.653 281.932 181.62 281.882 181.599 281.826C181.578 281.77 181.57 281.711 181.576 281.651C181.581 281.594 181.599 281.538 181.628 281.488C181.657 281.438 181.697 281.395 181.745 281.362L197.134 270.477C197.205 270.421 197.293 270.391 197.384 270.391C197.474 270.391 197.562 270.421 197.633 270.477C197.7 270.536 197.746 270.615 197.762 270.703C197.778 270.791 197.764 270.881 197.722 270.96L189.049 287.621C189.018 287.678 188.974 287.727 188.921 287.765L188.374 288.151C188.311 288.213 188.228 288.25 188.14 288.256ZM182.598 281.732L188.181 287.315L188.374 287.178L196.241 272.086L182.598 281.732Z" fill="#263238"/>
<path d="M191.735 218.773L176.804 229.336L175.188 241.001L193.304 228.186L191.735 218.773Z" fill="#08AF54"/>
<path d="M175.187 241.403C175.114 241.405 175.041 241.385 174.978 241.347C174.91 241.306 174.855 241.246 174.821 241.175C174.787 241.103 174.774 241.023 174.785 240.945L176.394 229.28C176.41 229.171 176.468 229.073 176.555 229.006L191.486 218.452C191.541 218.411 191.606 218.385 191.674 218.376C191.743 218.368 191.812 218.377 191.876 218.402C191.94 218.428 191.996 218.47 192.039 218.524C192.082 218.577 192.11 218.641 192.122 218.709L193.682 228.121C193.698 228.196 193.691 228.273 193.662 228.343C193.634 228.414 193.585 228.474 193.521 228.515L175.405 241.331C175.34 241.375 175.265 241.4 175.187 241.403ZM177.183 229.529L175.694 240.14L192.854 228.001L191.43 219.473L177.183 229.529Z" fill="#263238"/>
<path d="M195.911 243.816L172.493 260.38L171.053 270.734L171.745 271.426L197.48 253.229L195.911 243.816Z" fill="#08AF54"/>
<path d="M171.744 271.828C171.691 271.829 171.638 271.82 171.588 271.801C171.539 271.782 171.493 271.752 171.455 271.715L170.763 271.024C170.719 270.978 170.687 270.923 170.667 270.864C170.648 270.804 170.642 270.74 170.65 270.678L172.09 260.324C172.11 260.215 172.17 260.117 172.259 260.051L195.677 243.487C195.733 243.448 195.798 243.423 195.866 243.416C195.933 243.409 196.002 243.419 196.064 243.446C196.127 243.472 196.182 243.514 196.224 243.568C196.266 243.622 196.294 243.685 196.305 243.752L197.874 253.164C197.884 253.238 197.874 253.314 197.846 253.383C197.818 253.452 197.772 253.513 197.713 253.559L171.97 271.756C171.903 271.801 171.825 271.826 171.744 271.828ZM171.479 270.597L171.785 270.903L197.037 253.044L195.621 244.516L172.863 260.606L171.479 270.597Z" fill="#263238"/>
<path d="M185.267 171.937L169.226 189.258L163.756 166.837L165.469 159.967L185.267 171.937Z" fill="white"/>
<path d="M169.259 189.661H169.155C169.085 189.643 169.021 189.607 168.97 189.556C168.919 189.505 168.883 189.441 168.865 189.372L163.403 166.951C163.387 166.888 163.387 166.821 163.403 166.758L165.116 159.888C165.132 159.828 165.162 159.772 165.202 159.725C165.242 159.677 165.293 159.64 165.349 159.614C165.406 159.587 165.468 159.572 165.53 159.572C165.593 159.572 165.655 159.587 165.711 159.614L185.477 171.609C185.529 171.64 185.573 171.682 185.607 171.732C185.64 171.782 185.662 171.839 185.67 171.899C185.678 171.958 185.673 172.018 185.655 172.075C185.636 172.132 185.606 172.184 185.566 172.228L169.525 189.549C169.452 189.616 169.358 189.656 169.259 189.661ZM164.207 166.838L169.476 188.438L184.673 172.027L165.768 160.596L164.207 166.838Z" fill="#263238"/>
<path d="M185.268 171.938L197.479 187.979L203.312 165.929L201.309 160.82L185.268 171.938Z" fill="white"/>
<path d="M197.479 188.381C197.418 188.38 197.357 188.366 197.301 188.339C197.246 188.313 197.197 188.275 197.157 188.228L184.945 172.138C184.912 172.096 184.888 172.046 184.875 171.994C184.863 171.941 184.862 171.886 184.873 171.833C184.881 171.779 184.9 171.728 184.929 171.682C184.958 171.636 184.997 171.597 185.042 171.567L201.075 160.449C201.126 160.415 201.185 160.392 201.246 160.382C201.307 160.373 201.369 160.376 201.429 160.393C201.486 160.414 201.538 160.446 201.582 160.488C201.627 160.529 201.662 160.579 201.686 160.634L203.69 165.735C203.713 165.816 203.713 165.903 203.69 165.984L197.857 188.043C197.839 188.116 197.8 188.183 197.744 188.235C197.688 188.286 197.618 188.32 197.543 188.332L197.479 188.381ZM185.846 172.034L197.302 187.085L202.893 165.976L201.123 161.471L185.846 172.034Z" fill="#263238"/>
<path d="M70.7906 159.758C70.7906 159.758 65.3202 148.624 62.585 144.98C59.8498 141.336 57.1066 139.139 54.0094 138.592C50.9122 138.045 48.716 138.23 46.3428 137.313C43.9696 136.396 39.2232 135.125 37.9522 133.484C36.6811 131.843 34.2999 132.937 35.3939 135.672C36.488 138.407 40.3254 140.233 40.3254 140.233L43.4226 141.69C43.4226 141.69 33.3908 143.154 32.6588 143.701C31.9267 144.248 23.166 144.98 23.166 144.98C23.166 144.98 27.0033 151.729 32.4737 154.835C37.9441 157.94 55.1035 155.382 55.1035 155.382L60.2118 166.145L70.7906 159.758Z" fill="white"/>
<path d="M60.2127 166.547H60.0921C60.039 166.53 59.9901 166.502 59.9485 166.464C59.907 166.427 59.8737 166.381 59.8507 166.33L54.863 155.872C52.4496 156.21 37.4784 158.181 32.2816 155.236C26.771 152.059 22.9819 145.454 22.8451 145.173C22.8135 145.113 22.7969 145.047 22.7969 144.979C22.7969 144.912 22.8135 144.846 22.8451 144.786C22.8765 144.727 22.9225 144.677 22.9789 144.64C23.0352 144.603 23.0999 144.582 23.1669 144.577C27.3421 144.231 31.9598 143.684 32.4586 143.379C33.0941 142.896 38.8943 141.963 42.1122 141.488L40.2136 140.595C40.0527 140.523 36.1913 138.672 35.0892 135.825C34.3893 134.071 34.9926 132.961 35.7247 132.542C36.1684 132.318 36.6791 132.265 37.1597 132.392C37.6402 132.52 38.0572 132.819 38.3312 133.234C39.2483 134.417 42.3535 135.487 44.6543 136.267C45.3622 136.508 46.0219 136.734 46.5529 136.935C47.9562 137.428 49.4206 137.726 50.905 137.82C51.8865 137.916 52.9082 138.021 54.0747 138.23C57.1638 138.769 59.9634 140.853 62.9238 144.77C65.651 148.407 70.9685 159.154 71.1696 159.613C71.2144 159.703 71.2235 159.807 71.1952 159.904C71.1669 160.001 71.1032 160.084 71.0168 160.136L60.438 166.523C60.366 166.549 60.2887 166.558 60.2127 166.547ZM55.1044 154.979C55.18 154.978 55.2543 154.999 55.3185 155.039C55.3826 155.078 55.434 155.136 55.4664 155.204L60.3817 165.566L70.3088 159.605C69.3757 157.73 64.6776 148.447 62.2642 145.221C59.4485 141.472 56.8098 139.493 53.9379 138.986C52.7955 138.785 51.79 138.689 50.8246 138.592C49.2404 138.508 47.6756 138.205 46.1748 137.691C45.6519 137.49 45.0083 137.265 44.3084 137.031C41.7984 136.171 38.6771 135.101 37.6072 133.733C37.4509 133.474 37.2055 133.28 36.9168 133.188C36.6281 133.096 36.3159 133.113 36.0384 133.234C35.5799 133.5 35.234 134.248 35.7488 135.519C36.7705 138.085 40.4309 139.855 40.4711 139.871L43.5683 141.327C43.6467 141.365 43.7114 141.427 43.7532 141.503C43.795 141.579 43.8119 141.667 43.8016 141.754C43.7871 141.839 43.7458 141.918 43.6837 141.979C43.6215 142.04 43.5417 142.079 43.4557 142.091C38.7173 142.783 33.3998 143.7 32.8688 144.022C32.177 144.545 26.4331 145.1 23.8266 145.325C24.8644 146.934 28.2351 151.978 32.6758 154.48C37.9692 157.481 54.8711 155.003 55.04 154.979H55.1044Z" fill="#263238"/>
<path d="M19.7152 143.178C19.7152 143.178 16.8996 137.184 17.1329 135.889C17.3662 134.594 19.8359 135.423 20.6565 137.184C21.477 138.946 24.3007 143.178 24.3007 143.178H19.7152Z" fill="white"/>
<path d="M24.301 143.58H19.7155C19.6395 143.578 19.5653 143.555 19.5014 143.514C19.4375 143.473 19.3863 143.415 19.3535 143.346C18.8708 142.325 16.4896 137.168 16.7389 135.816C16.7765 135.566 16.8981 135.335 17.0837 135.163C17.2693 134.991 17.508 134.886 17.7606 134.867C18.4524 134.88 19.1264 135.088 19.7044 135.469C20.2825 135.849 20.741 136.385 21.0268 137.015C21.8312 138.737 24.6067 142.92 24.6388 142.96C24.6772 143.022 24.6986 143.092 24.7009 143.164C24.7032 143.237 24.6864 143.308 24.6521 143.372C24.6178 143.436 24.5672 143.489 24.5056 143.527C24.4439 143.565 24.3733 143.586 24.301 143.588V143.58ZM19.9729 142.775H23.5528C22.3758 141.024 21.2884 139.214 20.2947 137.353C20.0818 136.88 19.7451 136.474 19.3204 136.176C18.8956 135.879 18.3984 135.702 17.8813 135.664C17.6239 135.664 17.5676 135.825 17.5434 135.961C17.3825 136.782 18.911 140.474 19.9729 142.775Z" fill="#263238"/>
<path d="M14.7207 140.323C14.7207 140.323 19.097 149.631 22.0172 152.181C24.9375 154.731 30.7779 154.924 30.7779 154.924C30.7779 154.924 23.8434 147.619 22.3873 144.884C20.9312 142.149 15.6056 135.576 14.7207 140.323Z" fill="white"/>
<path d="M30.7774 155.325C30.536 155.325 24.7599 155.108 21.7673 152.485C18.7747 149.863 14.5271 140.877 14.3742 140.49C14.3466 140.412 14.3466 140.327 14.3742 140.249C14.5995 139.05 15.1224 138.383 15.9188 138.262C18.1874 137.916 21.7029 142.663 22.789 144.698C24.2048 147.353 31.0509 154.569 31.1152 154.641C31.1672 154.699 31.2016 154.771 31.2144 154.847C31.2272 154.924 31.2179 155.003 31.1875 155.075C31.1571 155.147 31.107 155.208 31.0429 155.252C30.9788 155.297 30.9034 155.322 30.8256 155.325H30.7774ZM15.1385 140.273C15.6614 141.367 19.6354 149.565 22.2822 151.882C24.3416 153.684 28.0019 154.295 29.7718 154.44C27.9537 152.493 23.2314 147.328 22.0247 145.076C20.818 142.823 17.5921 138.809 15.9912 139.058C15.6051 139.123 15.3074 139.525 15.1385 140.273Z" fill="#263238"/>
<path d="M18.2441 141.143C18.2441 141.143 22.6205 150.451 25.5407 153.009C28.4609 155.567 34.3014 155.744 34.3014 155.744C34.3014 155.744 27.3668 148.447 25.9107 145.704C24.4546 142.961 19.1532 136.405 18.2441 141.143Z" fill="white"/>
<path d="M34.3008 156.146C34.0594 156.146 28.2914 155.929 25.2907 153.306C22.29 150.683 18.0505 141.698 17.8976 141.319C17.8701 141.239 17.8701 141.151 17.8976 141.07C18.1283 139.874 18.6431 139.214 19.4422 139.091C21.7189 138.737 25.2264 143.483 26.3124 145.527C27.7283 148.182 34.5743 155.398 34.6387 155.478C34.6939 155.534 34.7311 155.606 34.7455 155.683C34.7598 155.76 34.7506 155.84 34.7191 155.912C34.6826 155.99 34.6226 156.055 34.5475 156.097C34.4725 156.138 34.3861 156.156 34.3008 156.146ZM18.6619 141.094C19.1848 142.188 23.1589 150.386 25.8056 152.703C27.8731 154.505 31.5254 155.116 33.3032 155.261C31.4771 153.314 26.7548 148.157 25.5562 145.897C24.3575 143.636 21.1155 139.646 19.5146 139.887C19.1124 139.944 18.8228 140.354 18.6619 141.094Z" fill="#263238"/>
<path d="M57.8392 150.635C57.8392 150.635 56.9221 149.17 53.8168 147.167C50.7116 145.164 34.2924 150.265 34.2924 150.265C34.2924 150.265 26.8108 140.965 25.7167 140.048C24.6226 139.131 22.6115 138.592 22.2494 140.418C21.8874 142.244 26.8108 150.071 28.0899 151.367C29.369 152.662 34.2924 155.743 34.2924 155.743C37.2851 156.772 40.436 157.265 43.6001 157.199C47.4766 156.92 51.3224 156.312 55.0959 155.381" fill="white"/>
<path d="M42.8282 157.619C39.8758 157.59 36.9474 157.084 34.156 156.122L34.1078 156.082C33.9066 155.953 29.1281 152.945 27.8409 151.649C26.7066 150.515 21.4615 142.454 21.8879 140.339C21.927 140.021 22.0527 139.72 22.2513 139.469C22.45 139.218 22.7139 139.026 23.0141 138.915C23.541 138.802 24.0871 138.817 24.6073 138.957C25.1276 139.096 25.6072 139.358 26.0068 139.719C27.0365 140.58 33.3194 148.351 34.4698 149.783C37.0682 148.979 51.0258 144.836 54.0667 146.807C57.1075 148.777 58.1614 150.338 58.2016 150.394C58.2308 150.439 58.2507 150.489 58.26 150.541C58.2693 150.594 58.2679 150.648 58.2559 150.7C58.2439 150.751 58.2214 150.8 58.19 150.843C58.1585 150.886 58.1187 150.922 58.0729 150.95C58.029 150.979 57.9796 150.998 57.9278 151.008C57.876 151.017 57.8228 151.015 57.7716 151.003C57.7204 150.991 57.6722 150.969 57.6299 150.937C57.5876 150.906 57.5522 150.866 57.5259 150.821C56.4381 149.473 55.1097 148.338 53.6081 147.474C51.1947 145.906 38.9346 149.212 34.4215 150.62C34.3445 150.644 34.2619 150.645 34.1844 150.622C34.107 150.599 34.0382 150.554 33.9871 150.491C31.4128 147.273 26.3124 141.03 25.4678 140.331C25.1753 140.055 24.8243 139.85 24.4411 139.73C24.0579 139.611 23.6525 139.579 23.2555 139.639C23.0917 139.706 22.9491 139.816 22.8429 139.958C22.7367 140.099 22.6708 140.267 22.6521 140.443C22.3464 141.956 26.9882 149.63 28.3799 151.022C29.5545 152.196 34.0112 155.044 34.4778 155.326C37.413 156.314 40.4957 156.793 43.5925 156.742C47.4453 156.478 51.2692 155.891 55.024 154.988C55.1306 154.962 55.2431 154.98 55.3367 155.038C55.4302 155.095 55.4971 155.187 55.5227 155.294C55.5483 155.4 55.5305 155.513 55.4732 155.606C55.4159 155.7 55.3237 155.767 55.217 155.792C51.4169 156.729 47.5443 157.343 43.6407 157.627C43.3511 157.619 43.0856 157.619 42.8282 157.619Z" fill="#263238"/>
<path d="M77.1629 169.308L70.5904 157.684L54.6699 167.289L58.7084 177.152L77.1629 169.308Z" fill="white"/>
<path d="M58.7093 177.553C58.6586 177.56 58.6071 177.56 58.5564 177.553C58.4586 177.511 58.3808 177.433 58.3392 177.335L54.3169 167.473C54.282 167.383 54.2799 167.284 54.3107 167.193C54.3416 167.101 54.4036 167.024 54.4858 166.974L70.4062 157.369C70.4558 157.347 70.5092 157.336 70.5631 157.336C70.6171 157.336 70.6705 157.347 70.72 157.369C70.8238 157.396 70.9131 157.462 70.9694 157.554L77.5499 169.114C77.5716 169.165 77.5828 169.219 77.5828 169.275C77.5828 169.33 77.5716 169.385 77.5499 169.436C77.5321 169.49 77.5027 169.539 77.4638 169.581C77.4249 169.623 77.3774 169.655 77.3247 169.677L58.8702 177.52C58.8186 177.54 58.7643 177.55 58.7093 177.553ZM55.1696 167.457L58.9265 176.619L76.6248 169.114L70.4786 158.237L55.1696 167.457Z" fill="#263238"/>
<path d="M163.757 166.838L157.554 338.19H112.56L121.659 216.087C121.659 216.087 97.1385 242.884 94.355 244.397C91.5716 245.909 88.0399 241.114 88.0399 241.114L54.9199 176.137L74.6375 165.269L96.3582 200.666L99.6404 198.389L102.166 199.652C102.166 199.652 124.692 159.967 126.437 158.954C128.183 157.94 136.549 158.447 136.549 158.447L158.27 160.217L165.631 158.608L163.757 166.838Z" fill="#08AF54"/>
<path d="M157.554 338.584H112.56C112.504 338.584 112.449 338.573 112.398 338.551C112.346 338.528 112.3 338.496 112.262 338.456C112.221 338.413 112.189 338.363 112.168 338.307C112.147 338.252 112.138 338.193 112.141 338.134L121.151 217.19C116.872 221.856 97.0898 243.335 94.5315 244.727C91.4826 246.392 87.8464 241.509 87.6936 241.324L54.5575 176.323C54.5112 176.228 54.503 176.12 54.5344 176.02C54.5658 175.919 54.6346 175.835 54.7264 175.784L74.4439 164.915C74.5345 164.866 74.6403 164.853 74.7401 164.879C74.84 164.904 74.9267 164.966 74.9829 165.052L96.4945 200.087L99.4388 198.052C99.5 198.016 99.5693 197.998 99.6399 197.998C99.7105 197.998 99.7799 198.016 99.8411 198.052L102.029 199.146C105.078 193.772 124.49 159.638 126.26 158.633C128.03 157.627 135.728 158.021 136.597 158.069L158.318 159.839L165.614 158.23C165.68 158.215 165.748 158.216 165.813 158.234C165.878 158.253 165.937 158.287 165.985 158.335C166.032 158.384 166.067 158.445 166.085 158.511C166.103 158.577 166.105 158.646 166.089 158.713L164.191 166.894L157.996 338.19C157.994 338.245 157.981 338.3 157.957 338.35C157.934 338.4 157.9 338.445 157.859 338.482C157.818 338.518 157.769 338.547 157.717 338.564C157.664 338.582 157.609 338.589 157.554 338.584ZM112.994 337.78H157.192L163.378 166.822C163.375 166.795 163.375 166.768 163.378 166.742L165.14 159.139L158.406 160.604H158.286L136.565 158.834C134.288 158.697 128.054 158.504 126.686 159.284C125.335 160.201 111.522 184.038 102.552 199.837C102.501 199.927 102.418 199.994 102.319 200.024C102.22 200.054 102.113 200.045 102.021 199.998L99.7043 198.84L96.6151 200.98C96.5702 201.012 96.5191 201.034 96.4651 201.045C96.411 201.056 96.3553 201.056 96.3014 201.044C96.2482 201.032 96.1979 201.01 96.1537 200.978C96.1094 200.946 96.0721 200.906 96.044 200.859L74.4922 165.8L55.4585 176.299L88.3934 240.922C88.3934 240.922 91.7239 245.37 94.1615 244.035C96.3175 242.86 112.898 225.058 121.361 215.806C121.417 215.744 121.492 215.702 121.574 215.684C121.657 215.667 121.742 215.676 121.819 215.71C121.896 215.744 121.96 215.801 122.003 215.873C122.046 215.945 122.066 216.028 122.06 216.112L112.994 337.78Z" fill="#263238"/>
<path d="M121.908 212.282L123.477 196.676L111.771 226.441L121.658 216.08L121.908 212.282Z" fill="#263238"/>
<path d="M111.771 226.842C111.694 226.842 111.619 226.82 111.554 226.778C111.476 226.728 111.417 226.653 111.388 226.565C111.359 226.477 111.36 226.382 111.393 226.295L123.106 196.53C123.142 196.44 123.209 196.366 123.294 196.32C123.38 196.274 123.478 196.26 123.573 196.28C123.668 196.303 123.752 196.36 123.808 196.44C123.864 196.52 123.889 196.618 123.879 196.715L122.27 212.322L122.02 216.103C122.013 216.196 121.973 216.285 121.908 216.352L112.061 226.714C112.025 226.754 111.98 226.787 111.93 226.809C111.88 226.831 111.826 226.843 111.771 226.842ZM122.785 199.49L112.898 224.702L121.264 215.926L121.506 212.281L122.785 199.49Z" fill="#263238"/>
<path d="M120.645 201.567C120.549 201.566 120.456 201.531 120.384 201.467C120.312 201.404 120.264 201.316 120.251 201.221C119.993 199.459 118.296 175.663 118.224 174.674C118.22 174.621 118.227 174.568 118.243 174.517C118.26 174.467 118.287 174.421 118.322 174.381C118.392 174.3 118.491 174.251 118.598 174.243C118.704 174.236 118.81 174.271 118.89 174.341C118.971 174.411 119.021 174.511 119.028 174.617C119.028 174.867 120.798 199.395 121.047 201.165C121.061 201.27 121.032 201.377 120.967 201.461C120.903 201.546 120.807 201.601 120.701 201.615L120.645 201.567Z" fill="#263238"/>
<path d="M118.625 210.665C118.529 210.667 118.435 210.633 118.361 210.571C118.287 210.509 118.238 210.423 118.223 210.328L115.447 192.629C115.438 192.577 115.44 192.524 115.451 192.473C115.463 192.422 115.485 192.373 115.516 192.33C115.546 192.288 115.585 192.251 115.63 192.224C115.675 192.197 115.725 192.179 115.777 192.171C115.884 192.154 115.993 192.181 116.08 192.244C116.167 192.307 116.226 192.402 116.244 192.509L119.019 210.207C119.028 210.259 119.027 210.312 119.015 210.363C119.004 210.415 118.982 210.463 118.951 210.506C118.92 210.549 118.881 210.585 118.836 210.612C118.792 210.64 118.742 210.658 118.689 210.665H118.625Z" fill="#263238"/>
<path d="M89.5524 216.732C89.4944 216.747 89.4335 216.747 89.3754 216.732C89.2814 216.685 89.2093 216.603 89.1747 216.504C89.1402 216.405 89.1458 216.296 89.1904 216.201L95.7629 202.525C95.7831 202.473 95.8137 202.427 95.8527 202.387C95.8918 202.348 95.9384 202.318 95.9898 202.298C96.0412 202.277 96.0962 202.268 96.1514 202.27C96.2067 202.272 96.2609 202.285 96.3107 202.309C96.3606 202.333 96.405 202.366 96.4412 202.408C96.4774 202.45 96.5046 202.499 96.5211 202.551C96.5377 202.604 96.5432 202.66 96.5373 202.715C96.5314 202.769 96.5143 202.823 96.4869 202.871L89.9144 216.547C89.8773 216.608 89.8237 216.658 89.7597 216.691C89.6958 216.723 89.624 216.738 89.5524 216.732Z" fill="#263238"/>
<path d="M96.631 212.434C96.5699 212.434 96.5096 212.42 96.4541 212.394C96.3594 212.346 96.2872 212.263 96.2527 212.162C96.2182 212.062 96.224 211.952 96.269 211.855L101.579 201.236C101.602 201.189 101.634 201.146 101.674 201.111C101.714 201.076 101.76 201.05 101.81 201.033C101.861 201.017 101.914 201.011 101.967 201.015C102.019 201.02 102.071 201.035 102.118 201.059C102.165 201.082 102.208 201.115 102.243 201.154C102.278 201.194 102.305 201.24 102.322 201.29C102.339 201.34 102.346 201.393 102.343 201.446C102.34 201.499 102.326 201.551 102.303 201.598L96.9931 212.209C96.9599 212.277 96.9084 212.334 96.8443 212.374C96.7803 212.414 96.7064 212.435 96.631 212.434Z" fill="#263238"/>
<path d="M155.534 246.054C155.451 246.056 155.369 246.031 155.301 245.984C155.233 245.936 155.182 245.867 155.156 245.788C151.27 234.92 148.342 218.082 146.564 205.862C146.55 205.758 146.578 205.652 146.641 205.568C146.704 205.484 146.798 205.428 146.902 205.412C147.007 205.398 147.114 205.425 147.199 205.488C147.285 205.551 147.343 205.645 147.36 205.75C149.13 217.929 152.051 234.711 155.912 245.523C155.93 245.572 155.937 245.625 155.934 245.677C155.931 245.73 155.917 245.781 155.894 245.829C155.871 245.876 155.839 245.918 155.799 245.952C155.759 245.987 155.713 246.013 155.663 246.029C155.622 246.045 155.578 246.053 155.534 246.054Z" fill="#263238"/>
<path d="M146.171 200.489C146.074 200.488 145.98 200.453 145.906 200.39C145.833 200.327 145.784 200.239 145.769 200.143C145.286 196.475 145.021 194.15 145.021 194.134C145.013 194.059 145.026 193.983 145.059 193.915C145.091 193.847 145.142 193.789 145.206 193.748L154.441 187.738L143.082 185.888C143.011 185.878 142.945 185.848 142.889 185.803C142.834 185.757 142.792 185.698 142.768 185.631C142.744 185.563 142.738 185.49 142.751 185.42C142.763 185.349 142.794 185.283 142.84 185.228C142.84 185.228 145.383 182.171 147.868 178.439C150.354 174.706 158.399 162.349 158.479 162.269C158.539 162.179 158.631 162.116 158.736 162.093C158.842 162.071 158.952 162.09 159.042 162.148C159.131 162.207 159.192 162.299 159.213 162.403C159.234 162.506 159.213 162.615 159.155 162.703C159.075 162.832 151.038 175.14 148.536 178.889C146.646 181.721 144.739 184.158 143.894 185.204L155.583 187.119C155.664 187.132 155.738 187.169 155.797 187.225C155.856 187.281 155.896 187.353 155.913 187.433C155.928 187.512 155.919 187.594 155.888 187.669C155.856 187.743 155.804 187.806 155.736 187.851L145.833 194.287C145.914 194.971 146.155 197.062 146.549 200.039C146.563 200.144 146.534 200.251 146.469 200.335C146.404 200.42 146.309 200.475 146.203 200.489H146.171Z" fill="#263238"/>
<path d="M296.148 159.758C296.148 159.758 301.619 148.624 304.362 144.98C307.105 141.336 309.832 139.139 312.938 138.592C316.043 138.045 318.223 138.23 320.596 137.313C322.969 136.396 327.716 135.125 328.995 133.484C330.274 131.843 332.639 132.937 331.545 135.672C330.451 138.407 326.622 140.233 326.622 140.233L323.516 141.69C323.516 141.69 333.556 143.154 334.28 143.701C335.004 144.248 343.773 144.98 343.773 144.98C343.773 144.98 339.936 151.729 334.465 154.835C328.995 157.94 311.844 155.382 311.844 155.382L306.735 166.145L296.148 159.758Z" fill="white"/>
<path d="M306.726 166.548C306.656 166.545 306.587 166.526 306.525 166.491L295.938 160.104C295.853 160.051 295.791 159.968 295.763 159.872C295.734 159.775 295.743 159.672 295.785 159.581C296.011 159.122 301.312 148.375 304.039 144.739C306.976 140.821 309.783 138.737 312.888 138.198C314.055 137.989 315.077 137.885 316.058 137.788C317.563 137.711 319.049 137.424 320.475 136.935C321.014 136.734 321.665 136.509 322.373 136.268C324.658 135.463 327.779 134.417 328.696 133.235C328.969 132.818 329.386 132.518 329.867 132.39C330.348 132.262 330.859 132.317 331.303 132.543C332.035 132.961 332.646 134.071 331.946 135.825C330.804 138.673 326.975 140.523 326.814 140.596L324.915 141.489C328.069 141.963 333.901 142.896 334.569 143.379C335.06 143.685 339.677 144.232 343.853 144.578C343.92 144.582 343.985 144.603 344.042 144.64C344.099 144.677 344.145 144.728 344.176 144.787C344.208 144.847 344.224 144.914 344.222 144.981C344.22 145.049 344.201 145.115 344.166 145.173C344.013 145.455 340.216 152.059 334.714 155.181C329.517 158.125 314.505 156.154 312.124 155.816L307.145 166.274C307.12 166.325 307.085 166.371 307.042 166.409C306.999 166.446 306.949 166.474 306.895 166.491L306.726 166.548ZM296.67 159.605L306.557 165.566L311.473 155.205C311.511 155.127 311.573 155.063 311.649 155.023C311.726 154.982 311.813 154.967 311.899 154.979C312.068 154.979 328.978 157.481 334.263 154.481C338.68 151.979 342.059 146.975 343.112 145.326C340.53 145.101 334.762 144.521 334.062 144.023C333.547 143.693 328.222 142.784 323.483 142.092C323.398 142.08 323.318 142.041 323.257 141.98C323.196 141.919 323.157 141.84 323.145 141.754C323.132 141.668 323.147 141.58 323.187 141.503C323.228 141.426 323.292 141.365 323.371 141.328L326.468 139.872C326.508 139.872 330.177 138.078 331.198 135.519C331.705 134.248 331.359 133.5 330.909 133.235C330.626 133.103 330.305 133.082 330.008 133.174C329.711 133.266 329.458 133.466 329.3 133.733C328.238 135.101 325.108 136.147 322.598 137.032C321.907 137.265 321.263 137.49 320.732 137.691C319.239 138.203 317.682 138.506 316.106 138.592C315.141 138.689 314.135 138.786 312.993 138.987C310.129 139.493 307.482 141.472 304.675 145.221C302.261 148.447 297.604 157.731 296.67 159.605Z" fill="#263238"/>
<path d="M347.224 143.178C347.224 143.178 350.04 137.184 349.806 135.889C349.573 134.594 347.103 135.423 346.283 137.184C345.462 138.946 342.639 143.178 342.639 143.178H347.224Z" fill="white"/>
<path d="M347.223 143.58H342.637C342.564 143.577 342.493 143.556 342.431 143.518C342.369 143.48 342.318 143.426 342.283 143.362C342.244 143.301 342.223 143.23 342.223 143.157C342.223 143.084 342.244 143.013 342.283 142.952C342.283 142.952 345.091 138.729 345.895 137.007C346.176 136.384 346.627 135.853 347.196 135.474C347.765 135.096 348.43 134.885 349.113 134.867C349.366 134.886 349.604 134.991 349.79 135.163C349.976 135.335 350.097 135.566 350.135 135.816C350.384 137.168 348.003 142.325 347.52 143.346C347.493 143.406 347.452 143.459 347.4 143.499C347.348 143.54 347.287 143.567 347.223 143.58ZM343.385 142.775H346.965C348.035 140.474 349.556 136.782 349.379 135.961C349.379 135.825 349.298 135.696 349.041 135.664C348.524 135.703 348.027 135.88 347.602 136.177C347.178 136.475 346.841 136.881 346.627 137.353C345.639 139.214 344.557 141.024 343.385 142.775Z" fill="#263238"/>
<path d="M352.219 140.323C352.219 140.323 347.843 149.631 344.923 152.181C342.003 154.731 336.162 154.924 336.162 154.924C336.162 154.924 343.097 147.619 344.561 144.884C346.025 142.149 351.31 135.576 352.219 140.323Z" fill="white"/>
<path d="M336.163 155.326C336.085 155.324 336.01 155.301 335.946 155.258C335.882 155.215 335.831 155.155 335.801 155.084C335.768 155.012 335.758 154.931 335.771 154.852C335.784 154.774 335.819 154.701 335.873 154.642C335.945 154.569 342.791 147.353 344.207 144.699C345.293 142.663 348.809 137.909 351.077 138.263C351.882 138.384 352.389 139.067 352.614 140.25C352.638 140.329 352.638 140.413 352.614 140.491C352.429 140.877 348.165 149.904 345.213 152.486C342.26 155.068 336.444 155.318 336.203 155.326H336.163ZM350.812 139.051C349.203 139.051 346.058 142.937 344.915 145.077C343.773 147.217 338.986 152.494 337.168 154.441C338.938 154.264 342.598 153.685 344.658 151.883C347.305 149.566 351.279 141.368 351.802 140.274C351.641 139.526 351.351 139.124 350.957 139.059L350.812 139.051Z" fill="#263238"/>
<path d="M348.696 141.143C348.696 141.143 344.32 150.451 341.399 153.009C338.479 155.567 332.639 155.744 332.639 155.744C332.639 155.744 339.573 148.447 341.037 145.704C342.501 142.961 347.787 136.405 348.696 141.143Z" fill="white"/>
<path d="M332.639 156.145C332.562 156.144 332.487 156.12 332.423 156.078C332.358 156.035 332.308 155.975 332.277 155.904C332.242 155.833 332.23 155.753 332.243 155.675C332.256 155.597 332.293 155.525 332.349 155.469C332.422 155.389 339.26 148.173 340.676 145.518C341.762 143.483 345.261 138.736 347.546 139.082C348.35 139.203 348.865 139.887 349.09 141.061C349.118 141.142 349.118 141.23 349.09 141.311C348.913 141.689 344.642 150.723 341.697 153.297C338.753 155.872 332.929 156.129 332.687 156.137L332.639 156.145ZM347.288 139.871C345.639 139.871 342.526 143.756 341.392 145.896C340.185 148.157 335.463 153.313 333.645 155.26C335.414 155.083 339.075 154.504 341.134 152.702C343.781 150.385 347.755 142.188 348.278 141.094C348.117 140.353 347.827 139.943 347.425 139.887L347.288 139.871Z" fill="#263238"/>
<path d="M309.1 150.635C309.1 150.635 310.017 149.17 313.122 147.167C316.227 145.164 332.646 150.265 332.646 150.265C332.646 150.265 340.128 140.965 341.222 140.048C342.316 139.131 344.327 138.592 344.689 140.418C345.051 142.244 340.128 150.071 338.849 151.367C337.57 152.662 332.646 155.743 332.646 155.743C329.654 156.772 326.503 157.265 323.339 157.199C319.465 156.92 315.622 156.312 311.851 155.381" fill="white"/>
<path d="M324.12 157.619C323.854 157.619 323.589 157.619 323.315 157.619C319.412 157.336 315.539 156.722 311.739 155.784C311.632 155.759 311.54 155.692 311.483 155.598C311.425 155.505 311.408 155.392 311.433 155.286C311.459 155.179 311.526 155.087 311.619 155.03C311.713 154.972 311.825 154.954 311.932 154.98C315.677 155.903 319.493 156.508 323.339 156.79C326.437 156.847 329.52 156.368 332.454 155.374C332.905 155.085 337.377 152.245 338.552 151.07C339.944 149.679 344.585 142.004 344.28 140.492C344.263 140.315 344.198 140.146 344.091 140.005C343.985 139.863 343.841 139.753 343.676 139.687C343.279 139.628 342.874 139.66 342.491 139.78C342.108 139.899 341.757 140.104 341.464 140.379C340.66 141.079 335.527 147.33 332.945 150.539C332.894 150.602 332.825 150.648 332.747 150.671C332.67 150.694 332.587 150.693 332.51 150.668C327.997 149.268 315.745 145.962 313.324 147.523C310.363 149.437 309.446 150.853 309.438 150.861C309.382 150.952 309.291 151.016 309.187 151.04C309.083 151.065 308.974 151.046 308.883 150.99C308.792 150.933 308.728 150.843 308.704 150.739C308.68 150.635 308.698 150.525 308.754 150.435C308.754 150.378 309.752 148.882 312.889 146.847C316.027 144.812 329.888 149.019 332.494 149.823C333.645 148.391 339.92 140.62 340.949 139.759C341.35 139.4 341.83 139.14 342.35 139.001C342.87 138.861 343.415 138.845 343.942 138.955C344.243 139.065 344.508 139.256 344.707 139.507C344.906 139.759 345.031 140.06 345.068 140.379C345.495 142.495 340.241 150.555 339.123 151.69C337.828 152.985 333.049 155.994 332.848 156.122L332.776 156.163C329.988 157.111 327.065 157.602 324.12 157.619Z" fill="#263238"/>
<path d="M289.775 169.308L296.348 157.684L312.276 167.289L308.23 177.152L289.775 169.308Z" fill="white"/>
<path d="M308.23 177.554C308.177 177.561 308.122 177.561 308.069 177.554L289.614 169.71C289.562 169.69 289.515 169.657 289.477 169.615C289.44 169.573 289.412 169.523 289.397 169.469C289.374 169.419 289.361 169.364 289.361 169.308C289.361 169.252 289.374 169.197 289.397 169.147L295.97 157.514C296.026 157.423 296.115 157.357 296.219 157.329C296.269 157.308 296.322 157.297 296.376 157.297C296.43 157.297 296.483 157.308 296.533 157.329L312.453 166.943C312.534 166.994 312.594 167.072 312.624 167.163C312.653 167.254 312.65 167.353 312.614 167.442L308.592 177.304C308.55 177.402 308.472 177.48 308.375 177.522C308.328 177.539 308.279 177.55 308.23 177.554ZM290.347 169.115L308.045 176.621L311.802 167.458L296.517 158.238L290.347 169.115Z" fill="#263238"/>
<path d="M203.182 166.838L209.385 338.19H254.387L245.28 216.079C245.28 216.079 269.8 242.876 272.584 244.388C275.367 245.901 278.907 241.106 278.907 241.106L312.019 176.137L292.342 165.269L270.621 200.666L267.331 198.389L264.805 199.652C264.805 199.652 242.28 159.967 240.534 158.954C238.788 157.94 230.422 158.447 230.422 158.447L208.701 160.217L200.656 158.608L203.182 166.838Z" fill="#08AF54"/>
<path d="M254.387 338.583H209.385C209.28 338.581 209.18 338.539 209.106 338.466C209.031 338.393 208.987 338.293 208.983 338.189L202.78 166.901L200.174 158.736C200.153 158.668 200.151 158.596 200.166 158.527C200.182 158.458 200.215 158.394 200.262 158.342C200.309 158.289 200.368 158.25 200.434 158.227C200.501 158.204 200.572 158.2 200.64 158.213L208.685 159.822L230.366 158.052C231.242 158.004 238.893 157.569 240.711 158.615C242.529 159.661 261.893 193.754 264.942 199.128L267.13 198.034C267.192 197.999 267.263 197.98 267.335 197.98C267.407 197.98 267.478 197.999 267.54 198.034L270.476 200.07L291.996 165.035C292.051 164.949 292.136 164.887 292.235 164.862C292.333 164.837 292.438 164.85 292.527 164.898L312.244 175.766C312.336 175.818 312.405 175.902 312.437 176.002C312.468 176.103 312.46 176.211 312.413 176.305L279.293 241.274C279.108 241.532 275.48 246.399 272.423 244.726C269.873 243.334 250.091 221.855 245.803 217.189L254.789 338.133C254.793 338.189 254.785 338.245 254.765 338.297C254.746 338.35 254.716 338.398 254.677 338.438C254.642 338.482 254.598 338.517 254.548 338.542C254.498 338.567 254.443 338.581 254.387 338.583ZM209.771 337.779H253.953L244.878 216.111C244.872 216.026 244.893 215.941 244.937 215.869C244.982 215.797 245.049 215.74 245.128 215.708C245.203 215.674 245.288 215.665 245.369 215.682C245.45 215.699 245.523 215.743 245.578 215.805C254.049 225.056 270.621 242.859 272.777 244.01C275.191 245.345 278.545 240.888 278.585 240.84L311.488 176.273L292.447 165.775L270.903 200.842C270.875 200.889 270.838 200.93 270.794 200.962C270.75 200.994 270.699 201.016 270.645 201.027C270.591 201.039 270.536 201.039 270.482 201.028C270.428 201.017 270.377 200.995 270.332 200.962L267.242 198.823L264.926 199.981C264.835 200.027 264.729 200.036 264.632 200.006C264.534 199.976 264.452 199.909 264.403 199.82C255.441 184.02 241.628 160.184 240.269 159.267C238.909 158.462 232.674 158.68 230.382 158.816L208.661 160.586H208.548L201.147 159.122L203.561 166.7C203.565 166.735 203.565 166.77 203.561 166.805L209.771 337.779Z" fill="#263238"/>
<path d="M245.28 216.079L244.975 203.746L254.733 225.708L245.28 216.079Z" fill="#263238"/>
<path d="M254.733 226.111C254.68 226.112 254.628 226.102 254.579 226.081C254.531 226.06 254.487 226.029 254.451 225.991L244.999 216.337C244.927 216.263 244.884 216.166 244.878 216.064L244.572 203.787C244.571 203.695 244.602 203.605 244.659 203.532C244.716 203.459 244.796 203.407 244.886 203.385C244.977 203.362 245.073 203.372 245.157 203.413C245.241 203.455 245.307 203.525 245.345 203.61L255.103 225.572C255.141 225.658 255.147 225.755 255.121 225.844C255.094 225.934 255.037 226.012 254.958 226.063C254.89 226.102 254.811 226.119 254.733 226.111ZM245.682 215.911L253.462 223.843L245.417 205.758L245.682 215.911Z" fill="#263238"/>
<path d="M245.031 212.684C244.93 212.685 244.832 212.647 244.758 212.578C244.683 212.51 244.637 212.415 244.629 212.314L242.353 178.945C242.349 178.892 242.356 178.839 242.372 178.789C242.389 178.739 242.416 178.692 242.45 178.652C242.485 178.612 242.527 178.58 242.575 178.556C242.622 178.532 242.674 178.518 242.727 178.515C242.779 178.511 242.832 178.518 242.883 178.534C242.933 178.551 242.979 178.578 243.019 178.613C243.059 178.647 243.092 178.69 243.116 178.737C243.139 178.784 243.153 178.836 243.157 178.889L245.434 212.258C245.437 212.311 245.43 212.364 245.412 212.414C245.395 212.464 245.368 212.51 245.333 212.55C245.298 212.589 245.255 212.622 245.208 212.645C245.16 212.668 245.108 212.681 245.056 212.684H245.031Z" fill="#263238"/>
<path d="M246.294 201.566H246.238C246.134 201.55 246.04 201.494 245.977 201.41C245.914 201.326 245.886 201.22 245.9 201.116C246.141 199.378 247.356 185.38 247.364 185.244C247.378 185.138 247.431 185.041 247.513 184.972C247.595 184.904 247.7 184.869 247.807 184.874C247.912 184.884 248.009 184.935 248.077 185.016C248.145 185.098 248.178 185.202 248.169 185.308C248.12 185.887 246.946 199.467 246.696 201.228C246.679 201.323 246.63 201.408 246.556 201.47C246.483 201.532 246.39 201.566 246.294 201.566Z" fill="#263238"/>
<path d="M248.322 210.665H248.258C248.205 210.659 248.154 210.641 248.108 210.614C248.062 210.587 248.022 210.551 247.991 210.508C247.959 210.465 247.937 210.417 247.925 210.365C247.912 210.313 247.911 210.259 247.92 210.207L250.703 192.509C250.711 192.456 250.73 192.405 250.757 192.359C250.785 192.313 250.821 192.274 250.864 192.242C250.907 192.21 250.956 192.187 251.007 192.174C251.059 192.161 251.113 192.159 251.166 192.167C251.219 192.175 251.27 192.193 251.315 192.22C251.361 192.248 251.401 192.284 251.433 192.327C251.464 192.37 251.487 192.419 251.5 192.471C251.513 192.522 251.516 192.576 251.508 192.629L248.724 210.328C248.711 210.423 248.662 210.511 248.588 210.573C248.514 210.636 248.419 210.668 248.322 210.665Z" fill="#263238"/>
<path d="M272.093 210.4C271.999 210.398 271.908 210.363 271.836 210.302C271.764 210.24 271.716 210.156 271.699 210.062L270.42 202.75C270.411 202.697 270.412 202.643 270.424 202.591C270.436 202.538 270.458 202.489 270.489 202.445C270.52 202.402 270.56 202.365 270.605 202.336C270.65 202.307 270.701 202.288 270.754 202.279C270.807 202.27 270.861 202.272 270.913 202.284C270.965 202.296 271.014 202.318 271.058 202.349C271.102 202.38 271.139 202.419 271.168 202.464C271.196 202.51 271.215 202.56 271.224 202.613L272.511 209.926C272.528 210.031 272.503 210.139 272.441 210.226C272.38 210.313 272.286 210.373 272.182 210.392L272.093 210.4Z" fill="#263238"/>
<path d="M264.918 206.812C264.812 206.806 264.713 206.76 264.64 206.684C264.567 206.608 264.525 206.507 264.523 206.402L264.604 201.406C264.615 201.302 264.662 201.206 264.737 201.134C264.812 201.062 264.91 201.019 265.014 201.012C265.067 201.013 265.119 201.024 265.167 201.045C265.216 201.067 265.26 201.097 265.296 201.135C265.333 201.173 265.362 201.218 265.381 201.267C265.4 201.317 265.409 201.369 265.408 201.422L265.328 206.41C265.328 206.463 265.317 206.516 265.297 206.566C265.276 206.615 265.245 206.66 265.207 206.697C265.169 206.734 265.124 206.764 265.074 206.784C265.024 206.803 264.971 206.813 264.918 206.812Z" fill="#263238"/>
<path d="M211.413 246.053C211.368 246.065 211.321 246.065 211.276 246.053C211.176 246.018 211.094 245.945 211.047 245.851C211.001 245.756 210.993 245.646 211.026 245.546C211.638 243.841 212.249 241.91 212.845 239.802C212.859 239.749 212.883 239.7 212.917 239.657C212.95 239.613 212.992 239.577 213.039 239.55C213.087 239.522 213.139 239.505 213.193 239.498C213.247 239.491 213.303 239.494 213.355 239.509C213.408 239.523 213.458 239.547 213.501 239.581C213.544 239.614 213.581 239.656 213.608 239.703C213.635 239.751 213.653 239.803 213.66 239.857C213.667 239.911 213.663 239.967 213.649 240.019C213.046 242.143 212.426 244.098 211.815 245.812C211.781 245.889 211.725 245.954 211.653 245.997C211.58 246.04 211.496 246.06 211.413 246.053Z" fill="#263238"/>
<path d="M214.31 236.44H214.205C214.103 236.414 214.016 236.348 213.962 236.258C213.908 236.168 213.891 236.06 213.915 235.958C218.195 219.064 220.834 196.885 221.156 194.302L211.253 187.866C211.185 187.822 211.133 187.759 211.102 187.684C211.072 187.609 211.066 187.527 211.084 187.448C211.098 187.369 211.137 187.296 211.194 187.24C211.252 187.183 211.326 187.147 211.405 187.134L223.111 185.22C222.306 184.174 220.359 181.736 218.469 178.905C215.967 175.156 207.93 162.815 207.85 162.719C207.799 162.629 207.784 162.524 207.808 162.424C207.833 162.324 207.895 162.237 207.982 162.181C208.068 162.125 208.173 162.105 208.274 162.124C208.375 162.143 208.465 162.201 208.525 162.284C208.606 162.405 216.643 174.713 219.136 178.454C221.63 182.195 224.148 185.22 224.172 185.244C224.216 185.3 224.244 185.367 224.256 185.437C224.267 185.507 224.26 185.579 224.237 185.646C224.213 185.713 224.171 185.773 224.116 185.818C224.06 185.864 223.994 185.893 223.923 185.904L212.564 187.754L221.807 193.763C221.87 193.805 221.92 193.863 221.951 193.931C221.982 193.999 221.994 194.075 221.984 194.149C221.984 194.383 219.265 218.203 214.744 236.151C214.718 236.243 214.66 236.322 214.58 236.376C214.501 236.429 214.405 236.452 214.31 236.44Z" fill="#263238"/>
<path d="M165.396 142.776L165.469 159.968L185.267 171.938L201.308 160.821L199.828 141.32C199.828 141.32 187.431 149.365 185.79 149.703C184.149 150.041 165.396 142.776 165.396 142.776Z" fill="white"/>
<path d="M185.268 172.341C185.194 172.343 185.121 172.323 185.059 172.285L165.236 160.346C165.177 160.31 165.128 160.259 165.093 160.199C165.058 160.138 165.038 160.07 165.035 160.001L164.963 142.809C164.964 142.744 164.981 142.68 165.012 142.623C165.043 142.566 165.086 142.517 165.14 142.48C165.193 142.443 165.255 142.42 165.319 142.411C165.383 142.402 165.449 142.409 165.51 142.431C172.75 145.23 184.544 149.575 185.694 149.341C186.844 149.108 194.64 144.217 199.603 141.015C199.663 140.98 199.731 140.961 199.8 140.961C199.87 140.961 199.938 140.98 199.998 141.015C200.06 141.046 200.114 141.093 200.153 141.151C200.192 141.208 200.216 141.275 200.223 141.345L201.679 160.845C201.684 160.916 201.67 160.986 201.639 161.05C201.608 161.114 201.561 161.168 201.502 161.207L185.469 172.325C185.404 172.347 185.335 172.352 185.268 172.341ZM165.872 159.743L185.252 171.464L200.891 160.62L199.499 142.021C196.86 143.726 187.432 149.76 185.903 150.065C184.375 150.371 169.918 144.925 165.791 143.332L165.872 159.743Z" fill="#263238"/>
<path d="M165.67 156.677L184.47 152.019L165.469 144.264L165.67 156.677Z" fill="#263238"/>
<path d="M165.672 157.07C165.582 157.072 165.494 157.044 165.422 156.99C165.374 156.953 165.336 156.905 165.309 156.851C165.283 156.797 165.269 156.737 165.269 156.676L165.068 144.255C165.068 144.189 165.084 144.123 165.115 144.065C165.146 144.006 165.191 143.955 165.245 143.917C165.303 143.886 165.368 143.869 165.434 143.869C165.5 143.869 165.565 143.886 165.623 143.917L184.625 151.673C184.704 151.705 184.77 151.761 184.815 151.833C184.86 151.905 184.881 151.99 184.874 152.075C184.866 152.159 184.832 152.239 184.778 152.303C184.723 152.368 184.65 152.414 184.569 152.437L165.768 157.087L165.672 157.07ZM165.889 144.867L166.066 156.129L183.177 151.89L165.889 144.867Z" fill="#263238"/>
<path d="M199.828 121.265C199.828 121.265 199.643 113.43 201.831 109.053C202.532 107.636 202.896 106.077 202.896 104.496C202.896 102.915 202.532 101.356 201.831 99.9388L203.85 99.2067C202.751 98.2861 201.596 97.4344 200.391 96.6566C199.844 96.4715 200.753 91.5562 199.112 88.998C197.471 86.4398 195.83 85.9008 195.83 85.9008L194.921 89.183C194.921 89.183 189.997 83.3506 187.262 82.2566C184.527 81.1625 176.699 75.8771 176.498 78.6123C176.297 81.3475 177.415 82.4416 177.415 82.4416C177.415 82.4416 171.945 79.3363 167.762 80.4304C163.579 81.5245 159.556 84.0827 160.465 84.9918C161.374 85.9008 165.389 89.7301 165.389 89.7301C165.389 89.7301 156.097 90.0921 155.003 91.1862C154.269 92.0365 153.72 93.0313 153.394 94.1064L158.679 96.8416C158.679 96.8416 153.941 96.4715 152.115 99.3918C150.289 102.312 149.927 103.414 151.206 103.945C152.47 104.589 153.687 105.32 154.85 106.133C154.85 106.133 153.571 108.321 155.035 111.966C156.499 115.61 159.95 123.638 159.95 123.638C159.95 123.638 161.229 110.51 162.139 107.959C163.048 105.409 174.358 99.3918 175.991 98.8447C177.625 98.2977 189.12 101.395 189.853 101.395C190.585 101.395 195.315 119.809 196.409 120.533C197.503 121.257 199.828 121.265 199.828 121.265Z" fill="#263238"/>
<path d="M159.928 124.04C159.85 124.038 159.774 124.013 159.71 123.969C159.645 123.925 159.595 123.863 159.566 123.79C159.566 123.71 156.082 115.746 154.634 112.118C153.436 109.125 154.007 107.057 154.32 106.277C153.269 105.546 152.167 104.89 151.022 104.314C150.808 104.241 150.612 104.121 150.451 103.962C150.289 103.804 150.165 103.61 150.089 103.397C149.815 102.52 150.435 101.289 151.754 99.1737C152.993 97.1866 155.431 96.6154 157.064 96.4706L153.17 94.4595C153.086 94.4192 153.019 94.3497 152.982 94.2639C152.945 94.1781 152.94 94.0818 152.969 93.9929C153.321 92.8508 153.913 91.7974 154.707 90.9037C155.704 89.9062 161.786 89.5039 164.425 89.3672C163.242 88.2329 160.853 85.9482 160.177 85.2724C160.063 85.1658 159.983 85.0285 159.946 84.8771C159.909 84.7257 159.916 84.5668 159.968 84.4197C160.362 82.9636 164.352 80.9041 167.651 80.0434C170.804 79.2389 174.569 80.6387 176.443 81.4995C176.131 80.5625 176.013 79.5714 176.097 78.5873C176.099 78.3871 176.153 78.1909 176.255 78.0185C176.357 77.8462 176.502 77.7038 176.677 77.6058C177.891 76.9381 180.635 78.3138 184.375 80.341C185.566 80.9846 186.692 81.596 187.408 81.8856C189.717 82.8027 193.394 86.8331 194.729 88.3214L195.437 85.7631C195.452 85.7104 195.478 85.6612 195.513 85.6184C195.547 85.5757 195.59 85.5401 195.638 85.5138C195.687 85.4902 195.741 85.478 195.795 85.478C195.849 85.478 195.903 85.4902 195.952 85.5138C196.024 85.5138 197.746 86.1332 199.443 88.7316C200.545 90.4452 200.561 93.0919 200.569 94.8456C200.558 95.3238 200.58 95.8023 200.634 96.2776C201.84 97.0629 202.998 97.9199 204.101 98.8438C204.156 98.8902 204.199 98.9501 204.224 99.0178C204.25 99.0855 204.257 99.1586 204.246 99.23C204.232 99.2995 204.2 99.3643 204.153 99.4178C204.107 99.4714 204.047 99.512 203.98 99.5357L202.371 100.115C203.014 101.546 203.33 103.102 203.296 104.67C203.263 106.238 202.881 107.779 202.178 109.181C200.063 113.421 200.215 121.128 200.215 121.208C200.215 121.317 200.172 121.421 200.095 121.498C200.059 121.536 200.015 121.567 199.967 121.588C199.918 121.609 199.866 121.619 199.813 121.618C199.709 121.618 197.303 121.618 196.129 120.814C195.533 120.42 194.665 117.797 192.356 110.114C191.318 106.679 190.047 102.44 189.613 101.724C189.242 101.676 188.43 101.482 186.692 101.08C183.579 100.348 177.103 98.8197 176.057 99.1656C174.352 99.7368 163.282 105.714 162.454 108.015C161.577 110.493 160.306 123.461 160.29 123.589C160.282 123.679 160.244 123.763 160.183 123.828C160.122 123.894 160.04 123.937 159.952 123.951L159.928 124.04ZM158.174 97.2268C156.983 97.2268 153.789 97.436 152.43 99.6402C151.36 101.362 150.676 102.625 150.821 103.196C150.821 103.301 150.942 103.461 151.312 103.622C152.599 104.274 153.838 105.016 155.02 105.843C155.105 105.9 155.165 105.988 155.188 106.088C155.21 106.188 155.193 106.293 155.141 106.382C155.141 106.382 153.991 108.465 155.35 111.86C156.42 114.531 158.568 119.615 159.654 122.093C160.024 118.521 160.973 109.929 161.705 107.862C162.727 105.006 174.48 98.9484 175.816 98.5059C176.974 98.1118 181.713 99.1737 186.877 100.388C188.269 100.718 189.588 101.024 189.798 101.032C190.329 101.032 190.53 101.338 193.128 109.978C194.375 114.105 196.072 119.744 196.595 120.251C197.476 120.669 198.437 120.888 199.411 120.894C199.411 119.181 199.524 112.793 201.462 108.916C202.127 107.554 202.473 106.059 202.473 104.543C202.473 103.028 202.127 101.533 201.462 100.171C201.435 100.12 201.418 100.064 201.414 100.006C201.41 99.948 201.419 99.8899 201.44 99.8356C201.46 99.7814 201.492 99.7322 201.534 99.6915C201.575 99.6509 201.625 99.6196 201.68 99.6L203.015 99.1173C202.135 98.3731 201.205 97.6904 200.232 97.074C199.757 96.9211 199.757 96.3419 199.741 94.9341C199.741 93.2769 199.741 90.775 198.743 89.2545C198.079 88.1392 197.158 87.1986 196.056 86.5113L195.252 89.3269C195.233 89.3977 195.196 89.4621 195.143 89.5131C195.091 89.5642 195.025 89.5999 194.954 89.6166C194.882 89.6311 194.808 89.6261 194.738 89.602C194.669 89.578 194.607 89.5358 194.56 89.4798C194.512 89.4235 189.669 83.7118 187.062 82.6659C185.995 82.183 184.953 81.646 183.941 81.057C181.528 79.7618 177.94 77.8391 177.015 78.3138C176.974 78.3138 176.87 78.3942 176.854 78.6436C176.693 81.1294 177.658 82.1511 177.658 82.1672C177.722 82.2393 177.757 82.3323 177.757 82.4286C177.757 82.525 177.722 82.618 177.658 82.6901C177.599 82.7663 177.515 82.8188 177.42 82.838C177.326 82.8572 177.227 82.8418 177.143 82.7947C177.095 82.7947 171.769 79.794 167.779 80.8318C164.046 81.8052 160.893 83.8163 160.668 84.6449C161.569 85.6103 165.551 89.4074 165.591 89.4717C165.648 89.5266 165.688 89.597 165.705 89.6742C165.722 89.7513 165.716 89.8319 165.688 89.9057C165.659 89.9795 165.61 90.0433 165.546 90.0892C165.481 90.1351 165.405 90.161 165.326 90.1636C161.528 90.3084 155.881 90.8233 155.205 91.5071C154.573 92.2091 154.087 93.0293 153.773 93.9205L158.753 96.4948C158.834 96.5387 158.898 96.6085 158.935 96.6932C158.971 96.7778 158.978 96.8723 158.954 96.9614C158.927 97.0504 158.872 97.128 158.796 97.1819C158.72 97.2358 158.629 97.2629 158.536 97.259C158.536 97.259 158.447 97.2268 158.174 97.2268Z" fill="#263238"/>
<path d="M169.773 94.2899C169.773 94.2899 157.561 106.357 157.376 108.32C157.191 110.283 162.661 141.496 163.007 142.59C163.353 143.684 176.313 151.89 180.319 152.799C184.325 153.708 188.525 152.614 189.619 151.705C190.713 150.796 201.284 144.778 202.378 139.855C203.472 134.932 196.61 101.393 195.805 100.122C195.001 98.8512 177.978 90.6376 169.773 94.2899Z" fill="white"/>
<path d="M183.514 153.54C182.419 153.544 181.326 153.428 180.256 153.194C176.435 152.325 163.105 144.095 162.647 142.736C162.148 141.239 156.798 110.299 156.975 108.304C157.152 106.309 167.433 96.0442 169.493 94.017C169.526 93.9813 169.567 93.9538 169.613 93.9365C177.722 90.3325 195.236 98.2646 196.161 99.9379C196.917 101.257 203.884 134.908 202.765 139.96C201.832 144.168 194.383 149.043 191.205 151.126C190.554 151.553 190.047 151.882 189.87 152.035C188.961 152.8 186.37 153.54 183.514 153.54ZM170.007 94.6284C165.317 99.246 157.9 107.009 157.779 108.361C157.619 110.171 162.952 141.095 163.411 142.462C163.974 143.524 176.411 151.496 180.433 152.405C184.456 153.314 188.414 152.212 189.387 151.4C189.596 151.223 190.071 150.909 190.795 150.434C193.892 148.407 201.148 143.661 202.009 139.767C203.063 135.037 196.217 101.684 195.493 100.348C194.817 99.3104 178.108 91.1611 170.007 94.6284Z" fill="#263238"/>
<path d="M169.773 94.2904C169.773 94.2904 174.005 96.382 175.751 97.1623C177.496 97.9427 179.427 95.2235 179.427 95.2235C179.427 95.2235 194.414 100.364 195.838 100.123C197.262 99.8814 191.816 94.2501 186.185 92.1183C180.553 89.9865 169.806 90.2519 169.773 94.2904Z" fill="#263238"/>
<path d="M195.759 100.525C193.82 100.525 182.533 96.7118 179.573 95.6982C179.01 96.39 177.288 98.2805 175.55 97.5323C173.813 96.7842 169.605 94.6684 169.565 94.6443C169.497 94.6111 169.44 94.5596 169.401 94.4956C169.361 94.4316 169.34 94.3577 169.34 94.2823C169.356 93.8076 169.492 93.3448 169.736 92.9369C169.979 92.529 170.322 92.1892 170.732 91.9493C173.949 89.7692 181.873 90.0508 186.33 91.7482C191.27 93.6226 196.579 98.4736 196.434 99.9297C196.423 100.076 196.361 100.214 196.26 100.321C196.159 100.428 196.025 100.497 195.879 100.517L195.759 100.525ZM179.428 94.8213C179.473 94.8136 179.519 94.8136 179.565 94.8213C185.124 96.7279 194.174 99.6481 195.654 99.7044C195.316 98.6023 190.972 94.3306 186.081 92.4642C181.833 90.8552 174.143 90.5898 171.23 92.5849C170.967 92.7371 170.739 92.9434 170.562 93.1903C170.384 93.4371 170.261 93.7188 170.201 94.0168C171.126 94.4673 174.44 96.1084 175.92 96.7601C177.103 97.283 178.623 95.6338 179.138 94.958C179.174 94.9159 179.218 94.8818 179.268 94.8582C179.318 94.8346 179.373 94.822 179.428 94.8213Z" fill="#263238"/>
<path d="M180.957 128.795C180.852 128.803 180.747 128.803 180.643 128.795L179.621 128.626C178.898 128.744 178.166 128.803 177.433 128.803C176.948 128.77 176.488 128.58 176.121 128.262C175.753 127.944 175.5 127.516 175.398 127.041C175.376 126.937 175.394 126.83 175.45 126.74C175.505 126.65 175.593 126.585 175.695 126.558C175.798 126.534 175.906 126.55 175.996 126.604C176.086 126.659 176.151 126.746 176.178 126.848C176.178 126.896 176.492 128.006 177.433 128.006C178.139 128.009 178.845 127.95 179.541 127.829H179.718L180.812 128.006C181.785 128.175 183.885 127.129 184.03 126.671C184.174 126.212 183.121 121.554 182.421 118.184C181.616 114.226 181.101 111.748 181.101 111.273C181.101 110.083 183.322 107.645 183.764 107.17C183.841 107.096 183.943 107.055 184.05 107.055C184.156 107.055 184.259 107.096 184.335 107.17C184.373 107.208 184.403 107.252 184.423 107.301C184.444 107.35 184.454 107.403 184.454 107.456C184.454 107.509 184.444 107.562 184.423 107.611C184.403 107.66 184.373 107.704 184.335 107.742C183.322 108.828 181.922 110.654 181.922 111.297C181.922 111.748 182.614 115.094 183.225 118.047C184.52 124.314 184.931 126.47 184.834 126.896C184.545 127.765 182.244 128.795 180.957 128.795Z" fill="#263238"/>
<path d="M185.003 127.194C184.76 127.192 184.518 127.17 184.279 127.129C184.227 127.119 184.178 127.098 184.134 127.068C184.09 127.039 184.053 127.001 184.024 126.957C183.995 126.913 183.974 126.863 183.964 126.812C183.954 126.76 183.955 126.706 183.965 126.655C183.975 126.602 183.995 126.552 184.024 126.508C184.053 126.464 184.091 126.426 184.136 126.396C184.18 126.367 184.23 126.347 184.282 126.338C184.334 126.328 184.388 126.329 184.44 126.341C184.892 126.441 185.364 126.399 185.791 126.22C185.885 126.153 185.948 126.052 185.968 125.939L186.145 124.845C186.165 124.74 186.225 124.647 186.312 124.585C186.399 124.523 186.506 124.498 186.612 124.515C186.664 124.522 186.714 124.541 186.759 124.568C186.804 124.595 186.843 124.632 186.874 124.674C186.904 124.717 186.926 124.766 186.938 124.817C186.95 124.868 186.951 124.921 186.942 124.973L186.757 126.067C186.73 126.228 186.672 126.383 186.585 126.521C186.498 126.659 186.384 126.778 186.25 126.872C185.875 127.099 185.441 127.211 185.003 127.194Z" fill="#263238"/>
<path d="M179.611 128.593C179.53 128.594 179.451 128.568 179.386 128.521C178.94 128.176 178.615 127.7 178.458 127.159C178.3 126.618 178.318 126.042 178.509 125.512C178.521 125.456 178.544 125.404 178.578 125.358C178.611 125.312 178.654 125.274 178.704 125.246C178.753 125.218 178.808 125.2 178.865 125.195C178.921 125.19 178.978 125.197 179.032 125.215C179.086 125.233 179.135 125.263 179.177 125.301C179.218 125.34 179.251 125.387 179.273 125.44C179.295 125.492 179.306 125.549 179.305 125.605C179.303 125.662 179.29 125.718 179.265 125.769C179.129 126.137 179.113 126.537 179.219 126.914C179.324 127.291 179.546 127.626 179.852 127.869C179.92 127.92 179.97 127.99 179.995 128.071C180.02 128.151 180.019 128.238 179.993 128.318C179.966 128.398 179.915 128.468 179.846 128.517C179.778 128.566 179.696 128.593 179.611 128.593Z" fill="#263238"/>
<path d="M176.338 139.712C176.239 139.712 176.142 139.678 176.065 139.615C175.991 139.539 175.949 139.436 175.949 139.329C175.949 139.223 175.991 139.12 176.065 139.044C176.129 138.971 182.348 132.117 189.459 134.925C189.508 134.945 189.553 134.974 189.591 135.01C189.629 135.047 189.659 135.091 189.68 135.14C189.701 135.188 189.712 135.241 189.713 135.293C189.714 135.346 189.704 135.399 189.685 135.448C189.665 135.497 189.636 135.542 189.599 135.58C189.562 135.618 189.518 135.648 189.47 135.669C189.421 135.69 189.369 135.701 189.316 135.702C189.263 135.702 189.211 135.693 189.162 135.673C182.573 133.075 176.725 139.51 176.668 139.583C176.627 139.628 176.575 139.663 176.518 139.685C176.461 139.708 176.4 139.717 176.338 139.712Z" fill="#263238"/>
<path d="M163.757 114.595C163.66 114.596 163.564 114.577 163.475 114.539C163.278 114.463 163.118 114.313 163.031 114.12C162.943 113.927 162.935 113.708 163.009 113.509C163.866 111.439 165.302 109.66 167.144 108.385C170.217 106.333 175.542 108.763 175.768 108.867C175.864 108.912 175.95 108.976 176.022 109.054C176.093 109.132 176.149 109.224 176.185 109.324C176.221 109.423 176.238 109.529 176.233 109.635C176.228 109.741 176.203 109.845 176.158 109.941C176.113 110.038 176.05 110.124 175.971 110.196C175.893 110.267 175.801 110.323 175.702 110.359C175.602 110.395 175.496 110.411 175.39 110.407C175.284 110.402 175.18 110.377 175.084 110.332C173.781 109.72 169.959 108.433 168.037 109.72C166.48 110.814 165.259 112.322 164.513 114.072C164.456 114.226 164.352 114.359 164.217 114.453C164.082 114.546 163.921 114.596 163.757 114.595Z" fill="#263238"/>
<path d="M195.661 111.137C195.514 111.138 195.37 111.099 195.243 111.023C195.117 110.948 195.014 110.84 194.945 110.71C194.033 109.158 192.641 107.944 190.979 107.251C190.262 106.991 189.489 106.924 188.738 107.057C187.987 107.189 187.284 107.517 186.699 108.007C186.621 108.079 186.529 108.135 186.429 108.171C186.329 108.207 186.222 108.223 186.116 108.218C186.01 108.212 185.906 108.186 185.81 108.14C185.714 108.095 185.628 108.03 185.557 107.951C185.414 107.793 185.34 107.585 185.351 107.372C185.361 107.16 185.456 106.96 185.613 106.817C186.417 106.128 187.39 105.666 188.432 105.478C189.475 105.29 190.548 105.382 191.542 105.747C193.572 106.573 195.269 108.05 196.369 109.946C196.42 110.039 196.451 110.142 196.462 110.248C196.473 110.353 196.463 110.46 196.432 110.562C196.401 110.664 196.351 110.758 196.283 110.84C196.216 110.922 196.133 110.99 196.039 111.04C195.923 111.103 195.793 111.136 195.661 111.137Z" fill="#263238"/>
<path d="M171.873 119.261C172.629 119.261 173.241 118.404 173.241 117.346C173.241 116.289 172.629 115.432 171.873 115.432C171.118 115.432 170.506 116.289 170.506 117.346C170.506 118.404 171.118 119.261 171.873 119.261Z" fill="#263238"/>
<path d="M189.556 114.612C189.556 115.666 188.936 116.527 188.188 116.527C187.44 116.527 186.82 115.666 186.82 114.612C186.82 113.558 187.432 112.697 188.188 112.697C188.944 112.697 189.556 113.558 189.556 114.612Z" fill="#263238"/>
<path d="M159.605 121.627C159.605 121.627 156.146 116.712 154.505 120.533C152.864 124.354 154.505 127.459 156.114 130.018C157.723 132.576 161.214 133.847 161.214 133.847L159.605 121.627Z" fill="white"/>
<path d="M161.215 134.248C161.169 134.256 161.123 134.256 161.078 134.248C160.933 134.2 157.466 132.897 155.776 130.226C153.934 127.362 152.462 124.192 154.103 120.371C154.227 119.943 154.468 119.558 154.797 119.259C155.126 118.959 155.532 118.757 155.97 118.673C157.796 118.488 159.694 121.087 159.903 121.393C159.944 121.444 159.969 121.505 159.976 121.57L161.585 133.781C161.592 133.851 161.582 133.921 161.555 133.986C161.529 134.051 161.486 134.107 161.432 134.151C161.371 134.204 161.295 134.238 161.215 134.248ZM156.163 119.478H156.05C155.567 119.526 155.165 119.936 154.843 120.685C153.275 124.337 154.843 127.297 156.452 129.791C157.555 131.276 159.028 132.447 160.724 133.186L159.187 121.771C158.656 121.063 157.257 119.478 156.155 119.478H156.163Z" fill="#263238"/>
<path d="M200.214 115.616C200.214 115.616 200.576 112.149 202.04 112.511C203.505 112.873 206.232 115.616 204.591 119.437C202.949 123.259 201.308 127.281 201.308 127.281L199.828 119.807L200.214 115.616Z" fill="white"/>
<path d="M201.309 127.685C201.223 127.674 201.142 127.637 201.079 127.577C201.015 127.518 200.972 127.44 200.955 127.355L199.499 119.881C199.495 119.844 199.495 119.806 199.499 119.769L199.861 115.577C199.861 115.32 200.159 113.035 201.181 112.319C201.325 112.217 201.489 112.148 201.663 112.116C201.837 112.084 202.015 112.09 202.186 112.134C202.798 112.354 203.36 112.693 203.84 113.132C204.319 113.571 204.706 114.102 204.978 114.692C205.349 115.458 205.542 116.299 205.542 117.15C205.542 118.001 205.349 118.842 204.978 119.608C203.369 123.389 201.712 127.403 201.696 127.443C201.664 127.518 201.61 127.582 201.541 127.625C201.472 127.669 201.391 127.689 201.309 127.685ZM200.256 119.785L201.446 125.891C202.066 124.402 203.144 121.788 204.222 119.286C204.539 118.624 204.703 117.9 204.703 117.166C204.703 116.432 204.539 115.708 204.222 115.046C203.777 114.062 202.961 113.293 201.953 112.906C201.893 112.888 201.83 112.885 201.768 112.896C201.707 112.907 201.649 112.933 201.599 112.971C201.06 113.349 200.714 114.813 200.626 115.65L200.256 119.785Z" fill="#263238"/>
<path d="M357.174 338.584H19.9804C19.8737 338.584 19.7714 338.541 19.6959 338.466C19.6205 338.391 19.5781 338.288 19.5781 338.182C19.5781 338.075 19.6205 337.973 19.6959 337.897C19.7714 337.822 19.8737 337.779 19.9804 337.779H357.174C357.28 337.779 357.383 337.822 357.458 337.897C357.534 337.973 357.576 338.075 357.576 338.182C357.574 338.288 357.531 338.389 357.456 338.464C357.381 338.539 357.28 338.582 357.174 338.584Z" fill="#263238"/>
</svg>
