<svg width="16" height="16" viewBox="0 0 16 16" fill="none" xmlns="http://www.w3.org/2000/svg">
<path fill-rule="evenodd" clip-rule="evenodd" d="M11.8727 16H4.1273C3.49401 16 2.89172 15.3768 2.78237 14.6075L1.3694 4.17391H14.6306L13.2176 14.6075C13.1083 15.3766 12.506 16 11.8727 16ZM7.6 14.087C7.6 14.2791 7.77909 14.4348 8 14.4348C8.22091 14.4348 8.4 14.2791 8.4 14.087V6.08696C8.4 5.89486 8.22091 5.73913 8 5.73913C7.77909 5.73913 7.6 5.89486 7.6 6.08696V14.087ZM10.4137 14.0148C10.3868 14.2054 10.5427 14.379 10.7619 14.4024C10.9812 14.4258 11.1808 14.2902 11.2077 14.0995L12.3289 6.15916C12.3558 5.96849 12.1999 5.79495 11.9806 5.77154C11.7614 5.74813 11.5618 5.88372 11.5349 6.07438L10.4137 14.0148ZM4.79229 14.0995C4.81921 14.2902 5.01878 14.4258 5.23805 14.4024C5.45732 14.379 5.61325 14.2054 5.58632 14.0148L4.46512 6.07438C4.4382 5.88372 4.23863 5.74813 4.01936 5.77154C3.80009 5.79495 3.64416 5.96849 3.67109 6.15916L4.79229 14.0995ZM4.05 2.08696H0.798917C0.356616 2.08696 0 2.39841 0 2.78261C0 3.16603 0.357687 3.47826 0.798917 3.47826H15.2011C15.6434 3.47826 16 3.16681 16 2.78261C16 2.39919 15.6423 2.08696 15.2011 2.08696H11.95V1.38972C11.95 0.621342 11.2326 0 10.3489 0H5.6511C4.76595 0 4.05 0.621319 4.05 1.38972V2.08696ZM5.65 2.08696H10.35C10.3501 1.84552 10.35 1.3913 10.3489 1.3913C10.3489 1.3913 5.65 1.39034 5.65 1.38972V2.08696Z" fill="#E92C5A"/>
</svg>
