<svg width="16" height="9" viewBox="0 0 16 9" fill="none" xmlns="http://www.w3.org/2000/svg">
<path d="M14.291 0.705095H1.29082C1.07564 0.703947 0.864961 0.761619 0.685646 0.870759C0.506331 0.979898 0.366503 1.13556 0.283988 1.3179C0.201473 1.50024 0.18001 1.70099 0.222336 1.89456C0.264662 2.08814 0.368859 2.26576 0.521642 2.40479L7.02171 8.36864C7.22469 8.55376 7.49926 8.65768 7.78547 8.65768C8.07167 8.65768 8.34625 8.55376 8.54923 8.36864L15.0493 2.40479C15.2014 2.26636 15.3054 2.08965 15.3481 1.897C15.3907 1.70436 15.3702 1.50443 15.289 1.3225C15.2078 1.14057 15.0697 0.984809 14.892 0.874912C14.7144 0.765016 14.5052 0.705919 14.291 0.705095Z" fill="#25629D"/>
</svg>
