<svg width="101" height="26" viewBox="0 0 101 26" fill="none" xmlns="http://www.w3.org/2000/svg">
<path d="M2.30146 0.970799V8.82839C2.9919 7.66535 4.20016 6.55905 6.47285 6.55905C8.63047 6.55905 10.9895 7.72208 10.9895 11.6367V20.0616H8.68801V12.0055C8.68801 9.76449 7.73865 8.51635 5.78241 8.51635C3.36588 8.51635 2.30146 10.0765 2.30146 12.8281V20.0333H0V0.914062H2.30146V0.970799Z" fill="#CADB3F"/>
<path d="M15.3902 13.8782C15.419 16.5731 16.7711 18.4737 19.0438 18.4737C21.1727 18.4737 21.8343 17.3957 22.2659 16.4312H24.5961C24.0783 18.1333 22.6398 20.3742 18.9575 20.3742C14.7573 20.3742 13.0312 16.9986 13.0312 13.5946C13.0312 9.67996 15.045 6.53125 19.1013 6.53125C23.4166 6.53125 24.8262 9.93526 24.8262 12.7719C24.8262 13.1691 24.8262 13.5095 24.7975 13.8782H15.3902ZM22.5248 12.2897C22.496 10.1055 21.4028 8.37509 19.1013 8.37509C16.7424 8.37509 15.7067 9.99199 15.4765 12.2897H22.5248Z" fill="#CADB3F"/>
<path d="M28.3661 6.87109C30.5237 13.1969 31.7032 16.686 32.0772 18.0476H32.106C32.5375 16.5442 33.4869 13.5373 35.6732 6.87109H38.0035L33.1992 20.6857C31.8471 24.5436 30.8402 25.5364 28.0784 25.5364C27.6469 25.5364 27.1579 25.508 26.64 25.4513V23.4656C26.9852 23.5224 27.3592 23.5224 27.7332 23.5224C29.4305 23.5224 30.0634 22.7848 30.869 20.5722L25.8633 6.87109H28.3661V6.87109Z" fill="#CADB3F"/>
<path d="M46.0292 1.39844V16.2059H53.624V20.0638H41.4551V1.39844H46.0292V1.39844Z" fill="#08AF54"/>
<path d="M67.8355 20.0624H63.0312L66.0807 0.460938L74.1358 11.836L82.2197 0.460938L85.2691 20.0624H80.4648L79.3428 10.5311L74.1645 18.3036L68.9863 10.5311L67.8355 20.0624Z" fill="#08AF54"/>
<path d="M100.402 5.11448V1.39844H92.2316H90.8795H87.8301V20.0638H90.8795H92.2316H100.402V16.3761H92.2316V12.0643H99.884V8.46176H92.2316V5.11448H100.402Z" fill="#08AF54"/>
<path d="M55.9531 20.0628H60.6136V8.57422L55.9531 11.1556V20.0628Z" fill="#08AF54"/>
<path d="M60.4697 4.20526L55.9531 1.70898V3.58119V6.67317V9.19781L60.4697 6.67317H60.4985L60.9876 6.3895L62.6849 5.45339L60.4697 4.20526Z" fill="#CADB3F"/>
</svg>
